<svg xmlns="http://www.w3.org/2000/svg" xmlns:xlink="http://www.w3.org/1999/xlink" width="901.08" height="567.559" viewBox="0 0 901.08 567.559">
  <defs>
    <linearGradient id="linear-gradient" x1="0.5" y1="1" x2="0.5" gradientUnits="objectBoundingBox">
      <stop offset="0" stop-color="gray" stop-opacity="0.251"/>
      <stop offset="0.54" stop-color="gray" stop-opacity="0.122"/>
      <stop offset="1" stop-color="gray" stop-opacity="0.102"/>
    </linearGradient>
    <linearGradient id="linear-gradient-2" x1="0.5" y1="1" x2="0.5" y2="0" xlink:href="#linear-gradient"/>
  </defs>
  <g id="Group_2556" data-name="Group 2556" transform="translate(-260.143 -250.22)">
    <g id="Group_2029" data-name="Group 2029" transform="translate(260.143 250.22)">
      <path id="Path_4232" data-name="Path 4232" d="M43.44,426.65c14.225,55.437,44.342,103.359,91.94,126.585,98.957,48.277,321.994,23.376,488.479-5.2,86.139-14.786,161.8-55.556,216.794-113.008Z" transform="translate(-33.725 -105.402)" fill="#ea6065" opacity="0.07"/>
      <path id="Path_4233" data-name="Path 4233" d="M922.605,80.454H831.259c-4.346,0-7.9-3.24-7.9-7.2s3.548-7.2,7.9-7.2h15.805c-4.346,0-7.9-3.24-7.9-7.2s3.548-7.191,7.9-7.191H835.787c-4.346,0-7.9-3.24-7.9-7.2s3.548-7.2,7.9-7.2h47.677c-10.582-4.489-22.918-7.673-37.19-9.341-130.007-15.228-176.427-5.16-192.825,5.2a191.331,191.331,0,0,1-66.817,26.7c-80.212,15.086-230.22,33.239-366.185-5.816-67.576-19.4-117.8,13.435-147.906,68.208H938.466c-1.13-15.932-4.512-30.647-10.724-43.52A8.282,8.282,0,0,1,922.605,80.454Z" transform="translate(-39.828 -20.144)" fill="#ea6065" opacity="0.07"/>
      <path id="Path_4234" data-name="Path 4234" d="M33.109,280.23a335.025,335.025,0,0,0,3.548,96.721l802.025,26.743A342.311,342.311,0,0,0,894.4,326.247Zm317.189,69H334.493c4.339,0,7.9,3.24,7.9,7.2s-3.556,7.191-7.9,7.191H243.186c-4.339,0-7.9-3.232-7.9-7.191s3.556-7.2,7.9-7.2h15.805c-4.339,0-7.9-3.24-7.9-7.2s3.556-7.2,7.9-7.2H247.7c-4.339,0-7.9-3.232-7.9-7.191s3.556-7.2,7.9-7.2h91.347c4.346,0,7.9,3.24,7.9,7.2s-3.548,7.191-7.9,7.191H350.3c4.346,0,7.9,3.24,7.9,7.2S354.668,349.228,350.3,349.228Z" transform="translate(-31.147 -74.693)" fill="#ea6065" opacity="0.07"/>
      <path id="Path_4235" data-name="Path 4235" d="M930.376,149.94,54.762,169.357C44.093,194.321,37.036,222.542,33.78,251.8H915.029a315.322,315.322,0,0,0,12.723-52.545C930.376,182.056,931.427,165.429,930.376,149.94Zm-718.4,62.394H196.176c4.339,0,7.9,3.24,7.9,7.2s-3.556,7.2-7.9,7.2H104.837c-4.339,0-7.9-3.24-7.9-7.2s3.556-7.2,7.9-7.2h15.805c-4.339,0-7.9-3.232-7.9-7.191s3.556-7.2,7.9-7.2H109.349c-4.339,0-7.9-3.24-7.9-7.2s3.556-7.2,7.9-7.2H200.7c4.346,0,7.9,3.24,7.9,7.2s-3.548,7.2-7.9,7.2h11.285c4.339,0,7.9,3.24,7.9,7.2S216.32,212.334,211.981,212.334Z" transform="translate(-29.699 -47.367)" fill="#ea6065" opacity="0.07"/>
    </g>
    <g id="Group_2192" data-name="Group 2192" transform="translate(367.062 427.192)">
      <ellipse id="Ellipse_289" data-name="Ellipse 289" cx="87.345" cy="5.209" rx="87.345" ry="5.209" transform="translate(0 336.083)" fill="#e6d4d4"/>
      <path id="Path_4760" data-name="Path 4760" d="M830.028,336.382s-9.938-3.549-16.327,10.648-16.327,29.815-16.327,29.815l5.679,1.42s1.42-9.938,4.969-11.358l-1.42,12.778s42.592,14.907,61.759-1.42l-.71-4.969s2.84.71,2.84,4.969l2.13-2.13s-2.13-4.259-8.518-9.938c-4.193-3.727-5.634-10.819-6.13-15.253a18.457,18.457,0,0,0-4.249-10.051C849.477,335.973,841.741,330.742,830.028,336.382Z" transform="translate(-705.723 -333.938)" fill="#4e4e4e"/>
      <path id="Path_4761" data-name="Path 4761" d="M581.286,383.483l9.294,11.828,5.914-6.759-5.069-8.448Z" transform="translate(-515.348 -259.246)" fill="#fbbebe"/>
      <path id="Path_4762" data-name="Path 4762" d="M576.231,611l-3.379,17.741,8.449,4.225,5.914-4.225V611Z" transform="translate(-513.672 -305.118)" fill="#fbbebe"/>
      <path id="Path_4763" data-name="Path 4763" d="M648.147,611l3.38,17.741-8.448,4.225-5.915-4.225V611Z" transform="translate(-526.449 -305.118)" fill="#fbbebe"/>
      <path id="Path_4764" data-name="Path 4764" d="M600.522,411.733l-11.828,84.485L571.8,573.1l20.277,2.535,16.052-71.812L628.4,442.993l-2.535,72.657-4.224,59.984h15.207l10.983-81.1,12.145-60.3-.317-22.495Z" transform="translate(-513.463 -265.53)" fill="#995659"/>
      <path id="Path_4765" data-name="Path 4765" d="M758.767,734.881s-4.224-5.069-6.759-2.535-8.448,12.673-8.448,12.673-13.518,7.6-2.535,9.293,14.362,0,14.362-.845,1.69-3.379,1.69-3.379l4.224.845,5.914-1.69s2.534-15.566,0-14.964S759.612,737.415,758.767,734.881Z" transform="translate(-693.673 -412.948)" fill="#5d5d5d"/>
      <path id="Path_4766" data-name="Path 4766" d="M829.334,734.881s4.224-5.069,6.759-2.535,8.448,12.673,8.448,12.673,13.518,7.6,2.535,9.293-14.363,0-14.363-.845-1.69-3.379-1.69-3.379l-4.224.845-5.914-1.69s-2.535-15.566,0-14.964S828.489,737.415,829.334,734.881Z" transform="translate(-710.17 -412.948)" fill="#5d5d5d"/>
      <circle id="Ellipse_290" data-name="Ellipse 290" cx="16.897" cy="16.897" r="16.897" transform="translate(110.293 12.295)" fill="#fbbebe"/>
      <path id="Path_4767" data-name="Path 4767" d="M849.673,383.546s-1.69,14.362-.845,17.742,2.535,8.448,2.535,8.448l-27.035-5.069s7.6-16.052,5.914-18.587S849.673,383.546,849.673,383.546Z" transform="translate(-711.077 -343.793)" fill="#fbbebe"/>
      <path id="Path_4768" data-name="Path 4768" d="M848.228,407.383l-27.881-5.914-16.051,98a36.6,36.6,0,0,1,21.966.845c11.828,4.224,27.88,0,27.88,0l-3.379-92.088Z" transform="translate(-707.098 -347.354)" fill="#bc9393"/>
      <path id="Path_4769" data-name="Path 4769" d="M818.9,391.783,809,397.01l-12.673,2.534-13.518,32.1,1.69,22.811s-14.362,26.19-16.052,40.553c0,0,1.69,21.966,29.57,21.121L816.6,464.6s7.6-38.863,0-49.846C816.606,414.752,822.048,394.159,818.9,391.783Z" transform="translate(-699.976 -345.43)" fill="#734648"/>
      <path id="Path_4770" data-name="Path 4770" d="M797.2,401.353l-2.736-.467-2.333.467s-5.914.845-12.673,6.759-29.57,24.5-31.259,29.57-.845,13.518,1.69,18.587a98.554,98.554,0,0,0,7.6,11.828l2.535,5.914,14.362-4.224s-9.293-17.742-8.449-25.346l16.9-13.518Z" transform="translate(-695.778 -347.238)" fill="#734648"/>
      <path id="Path_4771" data-name="Path 4771" d="M853.739,396.549l12.763,15.77,6.759,8.448-8.448,28.725-4.224,24.5s10.138,38.863,1.69,50.691c0,0-5.069,5.914-6.759-.845s-1.69-38.863-1.69-38.863-6.759-42.242-3.379-53.225S850.269,398.521,853.739,396.549Z" transform="translate(-716.079 -346.377)" fill="#734648"/>
      <path id="Path_4772" data-name="Path 4772" d="M869.629,548.863v8.448s-1.69,27.88,6.759,24.5,2.535-24.5,2.535-24.5l-.845-9.293Z" transform="translate(-720.05 -376.469)" fill="#fbbebe"/>
      <path id="Path_4773" data-name="Path 4773" d="M818.056,366.131c6.426-4.65,11.627-10.007,15.068-16.378,0,0,11.792,13.1,19,13.758s.655-15.723.655-15.723l-13.1-3.276-12.448,1.31-9.827,6.551Z" transform="translate(-709.701 -336.038)" fill="#4e4e4e"/>
      <path id="Path_4774" data-name="Path 4774" d="M684.413,318.954l6.758,2.535.845,8.448,3.379,51.536-1.69,38.863-12.672.845-4.225-43.088-1.689-47.311Z" transform="translate(-533.99 -247.097)" fill="#734648"/>
    </g>
    <g id="Group_2041" data-name="Group 2041" transform="translate(855.343 436.65)">
      <ellipse id="Ellipse_238" data-name="Ellipse 238" cx="86.695" cy="11.937" rx="86.695" ry="11.937" transform="translate(0 326.426)" fill="#fdefef"/>
      <path id="Path_4203" data-name="Path 4203" d="M360.005,429.179l-2.23,4.617s-12.658,16.924-4.838,19.576,11.969-16.052,11.969-16.052l2.067-2.618Z" transform="translate(-331.092 -269.009)" fill="#ffb8b8"/>
      <path id="Path_4204" data-name="Path 4204" d="M328.378,307.321l-2.081-.882s-2.462.882-2.462,4.675,3.029,59.169,3.029,59.169l-6.057,30.343,8.329,1.517,12.872-28.067Z" transform="translate(-284.884 -234.576)" fill="#575a89"/>
      <path id="Path_4205" data-name="Path 4205" d="M338.6,307.321l-2.081-.882s-2.462.882-2.462,4.675,3.029,59.169,3.029,59.169l-16.279,26.171,10.6,7.586,20.822-29.964Z" transform="translate(-295.106 -234.576)" fill="#f9cdcd"/>
      <path id="Path_4206" data-name="Path 4206" d="M239.259,428.788s-9.843,3.793-9.086,10.62,10.6,142.613,10.6,142.613l-3.029,15.172,28.773.759.757-97.856,20.444,97.856H316.49l-20.444-172.2Z" transform="translate(-194.25 -268.048)" fill="#9e6a6c"/>
      <path id="Path_4207" data-name="Path 4207" d="M320.285,659.822l-6.815,6.827s-15.9,3.034-12.115,8.344,43.159-1.517,43.159-1.517l-.757-12.137Z" transform="translate(-273.005 -333.712)" fill="#454548"/>
      <path id="Path_4208" data-name="Path 4208" d="M251.751,659.822l-6.815,6.827s-15.9,3.034-12.115,8.344,43.159-1.517,43.159-1.517l-.757-12.137Z" transform="translate(-155.254 -333.712)" fill="#454548"/>
      <ellipse id="Ellipse_239" data-name="Ellipse 239" cx="18.172" cy="18.206" rx="18.172" ry="18.206" transform="translate(51.066 9.025)" fill="#ffb8b8"/>
      <path id="Path_4209" data-name="Path 4209" d="M126.053,52.609l1.515,31.1L151.04,70.057l-3.028-17.448Z" transform="translate(-68.172 -14.758)" fill="#ffb8b8"/>
      <path id="Path_4210" data-name="Path 4210" d="M157.557,66.316,135.6,82.246l-3.786-11.379L125,89.073l3.786,32.619Z" transform="translate(-73.933 -18.604)" fill="#d8a4a4"/>
      <path id="Path_4211" data-name="Path 4211" d="M296.485,269.708l-24.23,33.377-.877-27.883-7.452,5.884v6.068l-10.6,9.861,3.786,37.929.757,44.756s-4.543,3.793-3.029,6.069,7.571,7.586,14.386,7.586,49.216-5.31,49.216-8.344-1.514-42.48-1.514-42.48v-53.1l-18.172-13.654Z" transform="translate(-212.86 -227.92)" fill="#f9cdcd"/>
      <path id="Path_4212" data-name="Path 4212" d="M105.942,236.107,96.1,250.52l-3.786-16.689,4.543-3.034Z" transform="translate(1.155 -64.747)" fill="#ffb8b8"/>
      <path id="Path_4476" data-name="Path 4476" d="M0,1.515l42.1.025V.025L0,0Z" transform="translate(72.485 233.122) rotate(-110.263)" opacity="0.2"/>
      <path id="Path_4213" data-name="Path 4213" d="M309.084,215.958s-2.271-11.379-15.144-9.1l1.514.759s-12.115-1.517-10.6,5.31c0,0-9.843,6.069-7.572,12.9a77.3,77.3,0,0,1,3.029,12.137l2.272-2.276s2.272-15.172,15.9-13.654c10.222,1.138,14.386,5.974,15.451,9.458a30.816,30.816,0,0,0,1.871,4.768l.85.187S321.2,219.751,309.084,215.958Z" transform="translate(-228.867 -206.554)" fill="#48484b"/>
      <path id="Path_4214" data-name="Path 4214" d="M220.943,295.942l6.893-.321,1.436,1.079a45.391,45.391,0,0,1,4.543,5.31c1.514,2.276,21.2,57.652,21.2,57.652a19.362,19.362,0,0,1-1.514,9.861c-2.272,5.31-20.444,37.17-20.444,37.17l-13.629-8.344L237.6,361.18l-12.872-18.206Z" transform="translate(-125.203 -231.541)" fill="#f9cdcd"/>
    </g>
    <g id="Group_2042" data-name="Group 2042" transform="matrix(0.998, -0.07, 0.07, 0.998, 604.908, 454.7)">
      <ellipse id="Ellipse_237" data-name="Ellipse 237" cx="91.243" cy="12.576" rx="91.243" ry="12.576" transform="matrix(0.996, 0.087, -0.087, 0.996, 2.192, 331.75)" fill="#fdefef"/>
      <path id="Path_4215" data-name="Path 4215" d="M0,0V21.527H12.916L14.639,0Z" transform="translate(64.874 315.673)" fill="#ffb8b8"/>
      <path id="Path_4216" data-name="Path 4216" d="M0,12.055,5.166,24.11l8.611,3.444L15.5,3.444,8.61,0Z" transform="translate(95.443 304.91)" fill="#ffb8b8"/>
      <path id="Path_4217" data-name="Path 4217" d="M8.94,20.625s-.73-5.436-8.115-3.148L2.051,33.541S-3.977,51.623,4.634,49.9,18.412,31.818,18.412,31.818L24.439,4.264,9.884,0Z" transform="translate(97.697 306.674)" fill="#515151"/>
      <path id="Path_4218" data-name="Path 4218" d="M8.679,0S-3.376,91.275.929,101.608s49.512,77.067,49.512,77.067l19.805-25.832L25.9,97.3,67.232,40.471,70.677,6.028Z" transform="translate(43.71 144.749)" fill="#c2565b"/>
      <path id="Path_4219" data-name="Path 4219" d="M38.318,0,49.686,6.016,49.512,7.75,21.527,147.676,0,143.37,14.208,44.776Z" transform="translate(61.429 177.469)" fill="#c2565b"/>
      <path id="Path_4220" data-name="Path 4220" d="M9.9,0,4.73,7.749s-11.194,18.944.861,18.944,17.222,0,18.083-4.305a56.747,56.747,0,0,1,2.583-8.611L25.4,2.583Z" transform="translate(53.686 330.743)" fill="#515151"/>
      <circle id="Ellipse_240" data-name="Ellipse 240" cx="18.944" cy="18.944" r="18.944" transform="translate(78.22 7.837)" fill="#ffb8b8"/>
      <path id="Path_4221" data-name="Path 4221" d="M7.171,0S9.754,14.638,2,17.222s9.472,37.027,9.472,37.027l19.8-32.721s-5.166-11.194-1.722-16.36Z" transform="translate(74.494 32.808)" fill="#ffb8b8"/>
      <path id="Path_4222" data-name="Path 4222" d="M37.888,28.06,33.213,0l-9.1,5.672L0,19.45,9.472,59.921,6.028,84.892s-4.305,7.75-3.444,11.194-.861,5.166,0,6.028,43.915,7.75,56.831,12.916,14.638,6.889,13.777,2.583S62.859,92.642,62.859,92.642L70.609,58.2,80.942,28.061,55.857,4.91Z" transform="translate(48.083 44.357)" fill="#ffdedf"/>
      <path id="Path_4223" data-name="Path 4223" d="M16.524,3.444,22.552,19.8,7.052,48.221,1.995,52.154A5.166,5.166,0,0,0,.17,57.546L3.608,70.609l9.01-13.38S37.19,27.555,36.329,19.8,32.884,0,32.884,0Z" transform="translate(106.474 106.861)" fill="#ffb8b8"/>
      <path id="Path_4224" data-name="Path 4224" d="M17.163,0l4.291,21.527L37.759,62S55.78,79.219,47.2,82.663,28.319,65.442,28.319,65.442L7.723,26.693,0,3.444Z" transform="translate(37.664 90.277) rotate(22)" fill="#ffb8b8"/>
      <path id="Path_4225" data-name="Path 4225" d="M3.444.622,10.376,0l2.541,2.345S27.555,35.066,25.833,38.51,6.889,43.677,6.889,43.677L0,23.011Z" transform="translate(116.108 70.073)" fill="#ffdedf"/>
      <path id="Path_4226" data-name="Path 4226" d="M19.635,1.864,15.363,0,13.607,1S-3.614,35.447.691,37.169s24.971,4.305,24.971,4.305Z" transform="translate(34.476 62.804)" fill="#ffdedf"/>
      <path id="Path_4227" data-name="Path 4227" d="M10.135,0,4.886,36.425,0,28.92Z" transform="translate(62.058 246.147)" opacity="0.2"/>
      <path id="Path_4228" data-name="Path 4228" d="M31.678,15.562s1.908,5.022-6.948,2.447c0,0-3.508,1.71-3.3-1.209,0,0-4.836,4.55-5.756,1.553s-3.44.737-3.44.737l-1.908-5.022L7.871,16.831,0,16.281S-.884-3.335,25.954.5,37.368,34.23,37.368,34.23s.17-5.549-2.282-2.788S31.678,15.562,31.678,15.562Z" transform="translate(77.8 0)" fill="#4f4f50"/>
    </g>
    <g id="Group_2038" data-name="Group 2038" transform="translate(759.491 437.639)">
      <ellipse id="Ellipse_268" data-name="Ellipse 268" cx="65.708" cy="10.009" rx="65.708" ry="10.009" transform="translate(0 353.39)" fill="#ea6065" opacity="0.1"/>
      <g id="man" transform="translate(9.88 0)">
        <path id="Path_2767" data-name="Path 2767" d="M778.191,766.043c-1.871,1.173-4.009,1.834-5.939,2.866s-3.808,2.584-4.358,4.722a2.969,2.969,0,0,0,.1,2.019,3.92,3.92,0,0,0,2.079,1.648,31.543,31.543,0,0,0,24.952.282,32.971,32.971,0,0,1,4.306-1.707,27.97,27.97,0,0,1,5.516-.564,42.423,42.423,0,0,0,5.8-.742,5.1,5.1,0,0,0,2.628-1.091,4.88,4.88,0,0,0,1.18-2.836,23.349,23.349,0,0,0-3.712-16.54,5.586,5.586,0,0,0-1.619-1.715,6.245,6.245,0,0,0-2.576-.69c-3.712-.453-7.6-1.284-11.351-1.373-2.688-.059-4.039,1.217-5.939,3.066C785.325,757.313,783.032,763.022,778.191,766.043Z" transform="translate(-767.762 -412.754)" fill="#505050"/>
        <path id="Path_2768" data-name="Path 2768" d="M855.348,765.371c0,3.638.438,7.491,2.643,10.394a13.729,13.729,0,0,0,3.608,3.155c4.662,2.97,10.839,4.061,15.754,1.544a4.678,4.678,0,0,0,1.96-1.648c.742-1.292.349-2.9-.067-4.328l-7.112-24.647c-4.6.705-11.351,1.2-15.434,3.534C853.737,755.059,855.348,762.119,855.348,765.371Z" transform="translate(-790.212 -412.631)" fill="#505050"/>
        <path id="Path_2769" data-name="Path 2769" d="M774.928,564.005c-.431,1.359-1.989,1.99-2.843,3.133-1,1.344-.9,3.207-.535,4.84a12.8,12.8,0,0,0,3.259,6.422,7.7,7.7,0,0,0,6.681,2.272,5.568,5.568,0,0,0,4.536-5,9.454,9.454,0,0,0-.7-3.214l-5.063-14.64a.554.554,0,0,0-.913-.4c-1.2.564-3.593,1.158-4.291,2.4S775.433,562.662,774.928,564.005Z" transform="translate(-768.671 -363.033)" fill="#fbb3b2"/>
        <path id="Path_2770" data-name="Path 2770" d="M773,561.133c1.849-.29,3.467-1.374,5.2-2.086s3.9-.987,5.353.2c.416.341.816.809,1.359.8a53.138,53.138,0,0,0-3.326-10.572.821.821,0,0,0-.29-.408.838.838,0,0,0-.631,0l-5,1.307c-1.849.482-2.064.334-1.923,2.153C773.779,553.337,774.2,561.133,773,561.133Z" transform="translate(-769.111 -360.895)" fill="#4a2425"/>
        <path id="Path_2771" data-name="Path 2771" d="M771.224,422.838a7.04,7.04,0,0,0-.742,3.912,133.032,133.032,0,0,0,1.039,19.681c.23,1.559.52,3.118.668,4.692a54.111,54.111,0,0,1,.1,6.585l-.742,28.582c-.089,3.5-.267,7.253-2.428,10a4.781,4.781,0,0,0-.869,3.17c.564,7.172,1.752,14.284,2.932,21.374a13.206,13.206,0,0,1,11.982.572,131.885,131.885,0,0,0,6.154-36.377c.171-6.08-.089-12.2.846-18.2,1.566-10.111.928-20.483-.223-30.653-.364-3.222-1.136-6.541-3.2-9.035a13.7,13.7,0,0,0-7.424-4.276C776.577,422.14,774.119,422.883,771.224,422.838Z" transform="translate(-767.885 -328.318)" fill="#814648"/>
        <path id="Path_2772" data-name="Path 2772" d="M771.224,422.838a7.04,7.04,0,0,0-.742,3.912,133.032,133.032,0,0,0,1.039,19.681c.23,1.559.52,3.118.668,4.692a54.111,54.111,0,0,1,.1,6.585l-.742,28.582c-.089,3.5-.267,7.253-2.428,10a4.781,4.781,0,0,0-.869,3.17c.564,7.172,1.752,14.284,2.932,21.374a13.206,13.206,0,0,1,11.982.572,131.885,131.885,0,0,0,6.154-36.377c.171-6.08-.089-12.2.846-18.2,1.566-10.111.928-20.483-.223-30.653-.364-3.222-1.136-6.541-3.2-9.035a13.7,13.7,0,0,0-7.424-4.276C776.577,422.14,774.119,422.883,771.224,422.838Z" transform="translate(-767.885 -328.318)" opacity="0.03"/>
        <path id="Path_2773" data-name="Path 2773" d="M783.637,531.12a131.114,131.114,0,0,0,7.81,75.9,20.6,20.6,0,0,1,1.811,5.612c.409,3.638-1.27,7.134-2.227,10.653-2.227,8-.943,16.526.483,24.714q.891,5.123,1.834,10.237c.616,3.326,1.21,6.941-.334,9.956,1.329,5.538,2.116,11.024,3.445,16.563a3.152,3.152,0,0,1,.126,1.358,4,4,0,0,1-1.359,1.819,8.121,8.121,0,0,0-2.071,7.773c3.393-2.435,8.122-1.581,12,0s7.691,3.712,11.878,3.712c-.609-4.915-1.2-10.074.617-14.685,1.054-2.673,2.91-5.2,2.858-8.055-.052-2.561-1.618-4.848-2-7.379a18.659,18.659,0,0,1,.178-4.721c.995-9.087-.134-18.263-1.262-27.335a16.336,16.336,0,0,0-1.247-5.2c-.527-1.069-1.314-2.094-1.3-3.289,0-1.388,1.121-2.517,1.537-3.838.742-2.435-.624-5.746,1.433-7.253,5.42-3.979,3.341-13.482,3.222-20.2q-.141-8.693-.743-17.372a73.992,73.992,0,0,1,4.1,29.948c-.238,3.326-.676,6.822.623,9.9.995,2.361,2.97,4.306,3.5,6.808a28.473,28.473,0,0,1,.171,4.714,4.858,4.858,0,0,0,1.967,4.083c.1,7.156.743,14.811.854,21.967a54.19,54.19,0,0,0,.891,10.913,13.9,13.9,0,0,1,.549,3.519,14.706,14.706,0,0,1-1.173,4.328,24.818,24.818,0,0,0,3.712,22.9c1.752-3.111,5.4-4.759,8.968-5.019s7.083.638,10.535,1.544a20.631,20.631,0,0,1,2.465-12.547,10.274,10.274,0,0,0,1.3-2.791c.4-1.885-.534-3.764-1.04-5.627-.824-2.97-.534-6.17-.341-9.273a146.759,146.759,0,0,0-1.373-31.121,26.354,26.354,0,0,0-1.418-5.939c-.267-.683-.594-1.336-.816-2.027a15.978,15.978,0,0,1-.594-3.8l-.854-11.878c-.6-8.322,2.131-16.541,4.039-24.662.854-3.638,1.782-7.268,2.353-10.965.78-5.034.906-10.178,2.049-15.145,1.025-4.454,2.873-8.8,3.259-13.363.594-7.075-2.346-13.913-5.2-20.4-1.188-2.673-5.679-2.405-8.567-2.88-20.483-3.363-42.057-3.385-61.374,4.194a15.27,15.27,0,0,0-5.279,3.645Z" transform="translate(-771.226 -353.712)" fill="#d64f54"/>
        <path id="Path_2774" data-name="Path 2774" d="M803.321,354.975l2.272,8.835a23.614,23.614,0,0,1,1.017,6.243,4.616,4.616,0,0,1-.5,2.227,5.317,5.317,0,0,1-1.41,1.44c-1.552,1.18-2.628,3.935-4.4,4.751.913,1.589,2.175.557,3.823,1.351,2.9,1.411,5.56,3.437,8.708,4.135,2.97.653,6.088.037,9.035-.742,4.18-1.136,8.337-2.7,11.7-5.442s5.278-5.16,5.263-9.488c-3.712.438-7.016-3.311-8.656-6.682a18.154,18.154,0,0,1-1.247-4l-1.989-8.753c-2.168.475-3.935,2.027-6.006,2.836a21.8,21.8,0,0,1-6.823.987,73.489,73.489,0,0,0-12.146,1.574c-.549.111-1.24.46-1.106.995" transform="translate(-776.144 -309.333)" fill="#fbb3b2"/>
        <path id="Path_2775" data-name="Path 2775" d="M803.321,354.975l2.272,8.835a23.614,23.614,0,0,1,1.017,6.243,4.616,4.616,0,0,1-.5,2.227,5.317,5.317,0,0,1-1.41,1.44c-1.552,1.18-2.628,3.935-4.4,4.751.913,1.589,2.175.557,3.823,1.351,2.9,1.411,5.56,3.437,8.708,4.135,2.97.653,6.088.037,9.035-.742,4.18-1.136,8.337-2.7,11.7-5.442s5.278-5.16,5.263-9.488c-3.712.438-7.016-3.311-8.656-6.682a18.154,18.154,0,0,1-1.247-4l-1.989-8.753c-2.168.475-3.935,2.027-6.006,2.836a21.8,21.8,0,0,1-6.823.987,73.489,73.489,0,0,0-12.146,1.574c-.549.111-1.24.46-1.106.995" transform="translate(-776.144 -309.333)" opacity="0.05"/>
        <circle id="Ellipse_155" data-name="Ellipse 155" cx="19.659" cy="19.659" r="19.659" transform="translate(17.274 11.194)" fill="#fbb3b2"/>
        <path id="Path_2776" data-name="Path 2776" d="M816.878,375.987a17.819,17.819,0,0,1,4.455-5.939c2.769-2.428,6.555-4.4,7.209-8.018l6,6.986a3.227,3.227,0,0,1,.742,1.143,2.879,2.879,0,0,1-.564,2.309c-1.485,2.368-3.823,4.061-6.035,5.776a183.376,183.376,0,0,0-14.544,12.829,1.485,1.485,0,0,1-.779.475,1.4,1.4,0,0,1-.809-.23,33.77,33.77,0,0,1-10.371-8.434c-.215-.26-.483-.557-.832-.535a1.072,1.072,0,0,0-.557.29c-2,1.633-4.179,3.586-6.741,3.333,3.318-2.383,5.2-6.362,5.895-10.393a19.65,19.65,0,0,1,.846-4.061,4.239,4.239,0,0,1,2.9-2.747c-1.618,2.472-.512,5.976,1.663,7.973a16.39,16.39,0,0,0,7.364,3.571C815.238,380.79,815.98,377.932,816.878,375.987Z" transform="translate(-774.534 -312.729)" fill="#814648"/>
        <path id="Path_2777" data-name="Path 2777" d="M787.143,532.336c2.8.69,5.449,1.863,8.166,2.732a39.03,39.03,0,0,0,15.331,1.611,8.278,8.278,0,0,0,4.454-1.418c.349-.282.668-.616,1.039-.876a7.267,7.267,0,0,1,2-.824c6.808-2.131,12.509-6.726,18.04-11.225.178-.148.379-.334.364-.572a.743.743,0,0,0-.223-.423L833.4,518c-7.632,1.3-15.449.809-23.192.616a33.7,33.7,0,0,0-4.766.126c-1.53.178-3.036.564-4.543.891-5.724,1.247-11.574,1.722-17.372,2.539a2.68,2.68,0,0,0-1.151.356,2.589,2.589,0,0,0-.616.683l-2.034,2.858a8.981,8.981,0,0,0-1.707,3.274c-.475,2.227.52,2.97,2.413,2.68A17.625,17.625,0,0,1,787.143,532.336Z" transform="translate(-770.374 -352.908)" fill="#4a2425"/>
        <path id="Path_2778" data-name="Path 2778" d="M808.07,390.119a36.15,36.15,0,0,0-7.654-5.976,10.843,10.843,0,0,0-3.712-1.485,4.632,4.632,0,0,0-3.8.935c-.661.587-1.076,1.4-1.715,2.019a8.532,8.532,0,0,1-2.717,1.537,48.2,48.2,0,0,0-9.547,5.442,21.892,21.892,0,0,0-4.328,3.994c-3.363,4.306-3.868,10.163-3.779,15.627.067,3.8,3.712,6.622,6.221,9.465a69.765,69.765,0,0,1,6.37,8.909c1.351,2.138,2.762,4.454,2.591,7-.141,2.086-1.359,4.046-1.166,6.125.067.742.3,1.425.371,2.145.134,1.485-.453,2.97-.6,4.454-.2,2.1.483,4.187.519,6.3a20.043,20.043,0,0,1-.549,4.3c-1.425,6.785-3.215,13.608-2.851,20.535l-4.113.742a3.474,3.474,0,0,1-.794,5.546c6.422,2.146,13.363,1.062,20.171,1.054,5.635,0,11.247.742,16.875.638s11.433-1.121,16.073-4.306c1.262-.861,2.42-1.871,3.749-2.621a18.493,18.493,0,0,1,5.679-1.856,56.349,56.349,0,0,1,11.136-.995c1.826,0,3.816.074,5.271-1.025,1.6-1.218,2.012-3.422,2.227-5.419.215-2.108.349-4.224.386-6.34a27.327,27.327,0,0,0-.26-4.929,32.381,32.381,0,0,0-.869-3.534l-2.8-9.859c-1.158-4.068.453-8.53.794-12.747.082-.995.1-2.153-.668-2.791-.275-.23-.654-.386-.743-.742a1.271,1.271,0,0,1,.178-.995,54.945,54.945,0,0,1,5.746-8.27,169.1,169.1,0,0,0,9.5-14.6,46.986,46.986,0,0,0-12.576-28.122,13.607,13.607,0,0,0-5.264-3.883,15.6,15.6,0,0,0-4.187-.676c-5.82-.393-11.878-.742-16.949-3.667a3.222,3.222,0,0,0-1.21-.512c-1.121-.126-1.937.98-2.665,1.856-1.871,2.227-4.625,3.5-7.045,5.145C814.856,381.6,811.329,385.82,808.07,390.119Z" transform="translate(-768.546 -315.175)" fill="#995659"/>
        <path id="Path_2779" data-name="Path 2779" d="M894.063,422.343c1.158,3.667,1.047,7.587,1.426,11.411a44.4,44.4,0,0,0,1.21,6.837,10.922,10.922,0,0,0,1.41,3.482,15.3,15.3,0,0,1,2.049,2.88,6.945,6.945,0,0,1,.3,2.316l.089,5.123a18.417,18.417,0,0,1-1.21,7.973l-3.2,9.733c-1.73,5.271-3.5,10.624-6.622,15.212a4.389,4.389,0,0,1-1.908,1.789,9.284,9.284,0,0,1-1.923.3,4.944,4.944,0,0,0-4.076,4.8,11.278,11.278,0,0,0-2.74-2.8l-6.511-5.2a27.829,27.829,0,0,0-7.253-4.7,19.666,19.666,0,0,0,13.675-16.526,7.423,7.423,0,0,1,.743-3.252c.542-.876,1.544-1.544,1.618-2.576.089-1.3-1.381-2.279-1.381-3.578,0-.861.639-1.574.921-2.383a5.987,5.987,0,0,0,0-3.051l-.9-4.989a3.8,3.8,0,0,0-.445-1.425,9.24,9.24,0,0,0-1.114-1.173c-1.544-1.73-.861-4.454,0-6.585a62.962,62.962,0,0,1,7.587-13.311,45.462,45.462,0,0,0,3.021-4.321c.787-1.366.965-3.259,1.8-4.454C891.7,416.686,893.15,419.455,894.063,422.343Z" transform="translate(-792.84 -326.086)" fill="#814648"/>
        <path id="Path_2780" data-name="Path 2780" d="M863.339,505.144a3.572,3.572,0,0,0-.846.891,7.505,7.505,0,0,1-3.363,2.4c.743.535,1.418,1.062,2.116,1.6a92.716,92.716,0,0,1,14.105,13.489c.468-1.671,3.267-1.552,3.95-3.148a3.076,3.076,0,0,0,.148-1.425,43.48,43.48,0,0,0-1.069-7.424,8.408,8.408,0,0,0-1.485-3.474,8.911,8.911,0,0,0-4.2-2.376C870.355,504.862,865.715,503.711,863.339,505.144Z" transform="translate(-791.299 -349.421)" fill="#4a2425"/>
        <path id="Path_2781" data-name="Path 2781" d="M848.135,512.416c-2.227,1.648-4.18,3.712-6.682,4.84-1.767.8-3.779,1.151-5.323,2.346a5.29,5.29,0,0,0,5.048,2.732,12,12,0,0,0,5.649-2.071c1.329-.816,2.888-1.767,4.336-1.2.223,1.128-.742,2.19-.742,3.333a3.361,3.361,0,0,0,1.885,2.576c4.455,2.873,10.186,2.635,15.494,2.3a1.4,1.4,0,0,0,.854-.253,1.343,1.343,0,0,0,.319-.98c.067-1.173.1-2.338.1-3.512a5.033,5.033,0,0,0-2.153-4.959,60.583,60.583,0,0,0-9.28-6.57C854.378,509.112,851.067,510.233,848.135,512.416Z" transform="translate(-785.374 -350.858)" fill="#fbb3b2"/>
        <path id="Path_2782" data-name="Path 2782" d="M824.939,326.092c-3.3.393-5.694,2.969-5.36,5.768s3.274,4.729,6.57,4.328,5.694-2.97,5.36-5.761S828.236,325.7,824.939,326.092Zm1.121,9.324c-2.792.334-5.278-1.307-5.568-3.667s1.752-4.543,4.536-4.878,5.278,1.307,5.568,3.667S828.844,335.083,826.06,335.417Z" transform="translate(-781.102 -303.458)" fill="#3c354c"/>
        <path id="Path_2783" data-name="Path 2783" d="M803.3,328.692c-3.3.394-5.694,2.97-5.36,5.761s3.274,4.729,6.57,4.335,5.694-2.969,5.36-5.768S806.6,328.3,803.3,328.692Zm1.121,9.317c-2.791.334-5.278-1.307-5.56-3.66s1.745-4.544,4.536-4.885,5.278,1.307,5.56,3.667S807.2,337.675,804.42,338.009Z" transform="translate(-775.528 -304.128)" fill="#3c354c"/>
        <path id="Path_2784" data-name="Path 2784" d="M663.177,259.64l7.164,1.529-.705,1.886-6.756-1.982Z" transform="translate(-647.336 -233.642)" fill="#3c354c"/>
        <path id="Path_2785" data-name="Path 2785" d="M714.777,253.18l-6.607,3.185,1.136,1.663,6.1-3.526Z" transform="translate(-659.003 -231.978)" fill="#3c354c"/>
        <path id="Path_2786" data-name="Path 2786" d="M687.31,260.851l5.026-.6-.26,1.247-4.313.289Z" transform="translate(-653.629 -233.799)" fill="#3c354c"/>
        <path id="Path_2787" data-name="Path 2787" d="M795.765,320.988a7.969,7.969,0,0,0,.742-3.244,6.936,6.936,0,0,1,.342-1.975,5.526,5.526,0,0,1,1.618-2.071,14.975,14.975,0,0,1,8.909-3.111,20.6,20.6,0,0,1,10.3,2.227,8.016,8.016,0,0,1,2.561,1.9c1.04,1.269,1.262,2.91,2.309,4.165a6.065,6.065,0,0,0,5.687,1.782c.364-1.292-.111-2.658.074-3.979a19.268,19.268,0,0,1,1.18-3.3c1.151-3.393-.527-7.327-3.986-9.354-1.21-.742-2.643-1.225-3.549-2.227a16.776,16.776,0,0,1-1.745-3.044c-1.656-2.65-5.939-3.89-9.2-2.665-1.024.386-1.93.973-2.969,1.388a24.472,24.472,0,0,1-6.251,1.2,19.147,19.147,0,0,0-6.058,1.589,6.786,6.786,0,0,0-3.794,4.1c-.2.8-.156,1.633-.356,2.428-1.025,4.031-7.639,5.991-8.01,10.1a5.9,5.9,0,0,0,1.685,4.12c.7.824,2.369,3.029,3.549,3.348s2.078-.8,3.207-1.188C793.8,322.629,794.874,322.51,795.765,320.988Z" transform="translate(-771.832 -295.621)" fill="#4f4f4f"/>
      </g>
    </g>
    <path id="Path_4326" data-name="Path 4326" d="M779.42,382.17l4.044,4.644a5.831,5.831,0,0,1-4.044-4.644Z" transform="translate(183.566 179.264)" opacity="0.1"/>
    <g id="Group_2039" data-name="Group 2039" transform="translate(286.99 423.261)">
      <ellipse id="Ellipse_242" data-name="Ellipse 242" cx="83.016" cy="6.816" rx="83.016" ry="6.816" transform="translate(0 350.435)" fill="#ea6065" opacity="0.1"/>
      <path id="Path_4334" data-name="Path 4334" d="M781.956,308.575c12.949-7.452,17.842-9.288,17.867-9.288l.269-.19a10.775,10.775,0,0,0,3.26-4.124,8.569,8.569,0,0,0,0-.887.366.366,0,0,1,0,.086c-.2-3.946-3.009-7.538-5.67-10.671l-6.808-8.009a7.9,7.9,0,0,1-1.755-2.778,6.406,6.406,0,0,1-.183-1.707q0-.349,0-.7c.037-1.989.092-3.983.165-5.972.061-1.738.508-3.928,2.245-4.283.905-.184,2.1.141,2.581-.612a1.487,1.487,0,0,0,.116-1.034.359.359,0,0,1,0,.086v-.1a23.052,23.052,0,0,1-.642-4.093,5.58,5.58,0,0,1,.281-2.074c1-2.882,4.471-4.069,7.536-4.613s6.5-1.01,8.423-3.408a24.93,24.93,0,0,1,1.676-2.307,6.612,6.612,0,0,1,3.132-1.548,17.734,17.734,0,0,1,11.4.991c1.48.661,2.967,1.554,4.594,1.456s3.132-1.273,4.8-1.554c2.691-.459,5.266,1.517,6.594,3.861a9.442,9.442,0,0,1,1.223,4.552v.269h0a6.658,6.658,0,0,1-1.749,4.65c-1.162,1.224-2.887,2.031-3.37,3.616-.2.642-.147,1.34-.324,1.995a1.809,1.809,0,0,1-.073.239l.086.116A20.2,20.2,0,0,1,841.9,272.99a20.655,20.655,0,0,1-14.509,19.579c0,.2,0,.4,0,.612a8.8,8.8,0,0,0,2.814,6.853l18.344,7.33s11.059-1.315,15.047,14.85a27.569,27.569,0,0,1,.685,8.2c-.147,2.447.19,6.73,3.058,12.28,4.533,8.884,3.5,29.277-5.774,31.3-8.753,1.909-12.178,1.114-12.539,1.022v.355c.147,3.83,1.535,36.834,6.582,40.823,1.395,1.107,1.138,1.836,0,2.356,0,0,0,.214.031.612.153,2.447.93,11.625,4.282,16.838,3.921,6.057,3.511,40.994,3.511,40.994l2.673,20.6s-1.645,12.72,0,14.941c1.474,1.976,3.432,49.034,3.841,59.24h.171a4.967,4.967,0,0,1,3.964,2.447c2.165,3.518,9.75,10.022,9.75,10.022,1.645,2.337,7.732,4.577,10.949,5.629A6.8,6.8,0,0,1,896,590.4a6.528,6.528,0,0,1,2.765,2.912,3.128,3.128,0,0,1,.294,2.447c-.82,2.013-17.928,3.433-22.259,1.407-3.4-1.585-16.882-3.671-22.479-4.491a4.612,4.612,0,0,1-4-4,2.638,2.638,0,0,1,.514-2h0c1.07-1.328,1.615-4.956,1.835-7.342a4.961,4.961,0,0,1-1.26-.746,53.766,53.766,0,0,0-3.058-21.6c-4.123-10.9-5.358-31.095-4.331-44.219,0,0-12.57-54.112-22.467-59.16h0c-.153.2-4.955,6.357-5.566,25.441-.612,19.384-7.621,32.1-7.621,32.1s3.1,32.912,0,45.228l4.043,19.426c.3-.251.489-.447.489-.447s-.122.538-.287,1.4l.086.416-.177.037c-.459,2.448-1.138,6.663-.856,9.178.159,1.413.557,3.353.826,5.256.428,2.992.544,5.892-1.028,6.529-2.581,1.04-17.738,2.447-20.307-.881a4.768,4.768,0,0,1-.746-4.987,5.048,5.048,0,0,1,.746-1.273s4.025-6.577,2.887-11.215a3.415,3.415,0,0,1,.483-2.662,136.818,136.818,0,0,0-3.468-21.758c-2.581-9.716-8.019-31.021-4.019-45.026h0q.226-.826.514-1.615a60.493,60.493,0,0,0,2.269-23.624,48.161,48.161,0,0,0,0-20.595c-2.477-11.307-4.208-22.412-4.208-22.412s-1.364-14.941-.171-24.1a6.006,6.006,0,0,1,.08-.612l-.648-.147s3.5-15.547,4.74-25.441c.294-2.337.673-5.293,1.089-8.45a21.559,21.559,0,0,1-3.358-.838c-11.126-3.836-14.631-38.547-14.631-38.547V332.976S768.97,316.046,781.956,308.575Zm82.918,268.139c.343-.171.544-.287.544-.287h0Z" transform="translate(-756.168 -239.838)" fill="url(#linear-gradient)"/>
      <path id="Path_4335" data-name="Path 4335" d="M823.782,617.114c-4.826,13.883.807,36.418,3.425,46.5a140.616,140.616,0,0,1,3.419,22.137,46.591,46.591,0,0,0,17.7-.4L844.1,664.624c3.022-12.274,0-45.075,0-45.075s6.838-12.678,7.444-31.994c.612-19.01,5.279-25.159,5.425-25.349h0c9.652,5.029,21.922,58.958,21.922,58.958-1,13.075.208,33.2,4.227,44.054a54.471,54.471,0,0,1,3.016,21.525c1.407,1.224,3.364,1.4,5.505,1.052,5.744-.93,12.631-5.88,12.631-5.88s-2.208-58.738-3.823-60.965,0-14.893,0-14.893l-2.612-20.522s.4-34.815-3.419-40.847c-3.3-5.213-4.061-14.379-4.208-16.783v-.612l-5.823-6.975s-56.323-4.228-60.555,0c-1.034,1.034-1.676,3.4-2.055,6.363-1.162,9.129.171,24.015.171,24.015s1.688,11.068,4.1,22.333a49.033,49.033,0,0,1,0,20.528A61.467,61.467,0,0,1,823.782,617.114Z" transform="translate(-791.278 -347.976)" fill="#734648"/>
      <path id="Path_4336" data-name="Path 4336" d="M913.515,808.125c2.514,3.322,17.3,1.915,19.818.881,1.535-.612,1.419-3.53,1-6.51-.263-1.891-.648-3.824-.807-5.231-.4-3.622,1.223-10.971,1.223-10.971s-3.315,3.524-4.116,0a3.837,3.837,0,0,0-2.875-2.729,7.509,7.509,0,0,0-5.224.324c-2.612,1.138-6.967,3.555-6.19,6.822,1.107,4.619-2.814,11.179-2.814,11.179a5.09,5.09,0,0,0-.734,1.26,4.829,4.829,0,0,0,.716,4.974Z" transform="translate(-877.488 -450.758)" fill="#a27772"/>
      <path id="Path_4337" data-name="Path 4337" d="M913.766,820.339c2.514,3.322,17.3,1.915,19.818.881,1.535-.612,1.419-3.53,1-6.51-1.59.746-4.282,1.364-8.79.948a24.773,24.773,0,0,0-3.162-.1,73.537,73.537,0,0,1-9.6-.2A4.829,4.829,0,0,0,913.766,820.339Z" transform="translate(-877.738 -462.972)" opacity="0.1"/>
      <path id="Path_4338" data-name="Path 4338" d="M863.813,646.424c-1,13.075.208,33.2,4.227,44.054A54.471,54.471,0,0,1,871.055,712c1.407,1.224,3.364,1.4,5.505,1.052-1.223-8.486-6.386-45.051-9.7-73.943-3.774-32.9-21.409-55.532-21.409-55.532l-3.517,3.873C851.543,592.495,863.813,646.424,863.813,646.424Z" transform="translate(-776.191 -373.26)" opacity="0.1"/>
      <path id="Path_4339" data-name="Path 4339" d="M870.239,325.334l2.447,12.072,12.031,20.222,14.833-6.339s20.185-21.127,7.493-24.144a11.227,11.227,0,0,1-4.208-1.872,8.706,8.706,0,0,1-3.285-7.281,22.326,22.326,0,0,1,2.043-8.652l-25.947-8.15a41.682,41.682,0,0,1,1.835,10.512c.2,7.073-2.447,10.555-4.581,12.237A7.792,7.792,0,0,1,870.239,325.334Z" transform="translate(-828.175 -263.651)" fill="#fbbebe"/>
      <path id="Path_4340" data-name="Path 4340" d="M886,301.19a41.663,41.663,0,0,1,1.835,10.512,19.759,19.759,0,0,0,1.511,1.609,20.523,20.523,0,0,0,20.515,4.681,22.327,22.327,0,0,1,2.061-8.652Z" transform="translate(-838.504 -263.651)" opacity="0.1"/>
      <path id="Path_4341" data-name="Path 4341" d="M866.15,282.741a20.427,20.427,0,1,0,5.983-14.539A20.525,20.525,0,0,0,866.15,282.741Z" transform="translate(-821.633 -248.525)" fill="#fbbebe"/>
      <path id="Path_4342" data-name="Path 4342" d="M870.239,339.753l2.447,12.072,12.031,20.222,14.833-6.339s20.185-21.127,7.493-24.144a11.228,11.228,0,0,1-4.208-1.872c2.288,6.29-7.157,19.377-7.157,19.377-1.1,1.621-3.621.612-3.621.612-6.086-.924-17.286-18.429-19.115-21.341a7.791,7.791,0,0,1-2.7,1.413Z" transform="translate(-828.175 -278.071)" opacity="0.1"/>
      <path id="Path_4343" data-name="Path 4343" d="M844.33,526.686c3.572.814,23.335,5.189,30.828,4.093,8.245-1.224,24.277-2.007,24.277-2.007s10.209.551,13.353-.887v-.612l-5.823-6.975s-56.323-4.228-60.555,0C845.352,521.356,844.709,523.718,844.33,526.686Z" transform="translate(-813.881 -347.968)" opacity="0.1"/>
      <path id="Path_4344" data-name="Path 4344" d="M871.405,359.8s10.612-14.685,6.612-20.436l17.928,7.342s10.79-1.309,14.68,14.8a28.034,28.034,0,0,1,.667,8.174c-.147,2.447.183,6.73,2.954,12.237,4.422,8.854,3.419,29.179-5.634,31.2s-12.264,1-12.264,1,1.223,36.821,6.435,41.049-13.334,3.218-13.334,3.218-16.032.808-24.283,2.013-31.379-4.228-31.379-4.228,3.419-15.492,4.63-25.349,4.031-30.856,4.031-30.856l-20.515-27.8s-3.621-16.8,9.053-24.248,17.439-9.27,17.439-9.27S861.16,359.392,867.8,360.4C867.784,360.4,870.3,361.411,871.405,359.8Z" transform="translate(-803.894 -278.191)" fill="#ee8084"/>
      <path id="Path_4345" data-name="Path 4345" d="M858.233,382.74s.2,6.645-1.009,9.257-5.634,17.132-5.634,17.132h10.062s-5.432-5.837-5.034-8.658S858.233,382.74,858.233,382.74Z" transform="translate(-767.186 -295.305)" opacity="0.1"/>
      <path id="Path_4346" data-name="Path 4346" d="M856.147,446.74s22.216-5.433,24.283-10.059S888.2,421.7,888.2,421.7l-2.343-3.157-10.8,8.48s-12.845,10.261-18.913,11.27S856.147,446.74,856.147,446.74Z" transform="translate(-794.876 -309.2)" fill="#fbbebe"/>
      <path id="Path_4347" data-name="Path 4347" d="M856.147,446.74s22.216-5.433,24.283-10.059S888.2,421.7,888.2,421.7l-2.343-3.157-10.8,8.48s-12.845,10.261-18.913,11.27S856.147,446.74,856.147,446.74Z" transform="translate(-794.876 -309.2)" opacity="0.05"/>
      <path id="Path_4348" data-name="Path 4348" d="M871.65,421.8v12.054h1.933a56.314,56.314,0,0,1,27.364,7.091l3.623,2.008.973.545,6.239-14.073-5.835-5.231h-.3c-1.425.141-7.6.655-10.215-.226-2.483-.844-5.566-3.518-12.882-1.652-3.6.924-6.686,4.962-10.178,3.7Z" transform="translate(-829.585 -310.412)" fill="#fbbebe"/>
      <path id="Path_4349" data-name="Path 4349" d="M901.409,377.323l-4.019,4.528v10.971s3.419,34.606,14.276,38.431,30.253-2.215,30.253-2.215,5.01-13.277,2.667-14.073-20.705-5.654-20.705-5.654.257-20.3-3.762-26.34c0,0,2.612-18.912-6.441-19.316S901.409,377.323,901.409,377.323Z" transform="translate(-878.759 -287.894)" opacity="0.1"/>
      <path id="Path_4350" data-name="Path 4350" d="M902.42,377.323l-4.025,4.528v10.971s3.419,34.606,14.282,38.431,30.253-2.215,30.253-2.215,5.01-13.277,2.661-14.073-20.7-5.654-20.7-5.654.263-20.3-3.762-26.34c0,0,2.618-18.912-6.435-19.316S902.42,377.323,902.42,377.323Z" transform="translate(-880.381 -287.894)" fill="#ee8084"/>
      <path id="Path_4351" data-name="Path 4351" d="M878.7,291.408a8.091,8.091,0,0,1,.459-3.922,2.985,2.985,0,0,1,3.193-1.836c1.719.4,2.447,2.643,4.147,3.182a3.314,3.314,0,0,0,3.67-1.884,9.389,9.389,0,0,0,.7-4.381v-5.042c0-1.836.061-3.806,1.187-5.244,1.4-1.787,4.7-2.57,6.9-2.5a5.852,5.852,0,0,1,3.939,1.585,5.069,5.069,0,0,0,4.141,1.475,3.566,3.566,0,0,0,2.887-2.5v-.061a20.518,20.518,0,1,0-30.5,27.24,55.34,55.34,0,0,1-.722-6.119Z" transform="translate(-828.557 -248.479)" opacity="0.1"/>
      <path id="Path_4352" data-name="Path 4352" d="M908.922,264.352a3.6,3.6,0,0,0,2.893-2.5c.165-.649.122-1.34.312-1.982.471-1.585,2.159-2.4,3.291-3.61,2.263-2.4,2.116-6.357.514-9.251-1.3-2.331-3.8-4.283-6.435-3.842-1.627.281-3.058,1.438-4.685,1.548s-3.058-.789-4.484-1.45a16.889,16.889,0,0,0-11.145-.991,6.421,6.421,0,0,0-3.058,1.548,26.758,26.758,0,0,0-1.633,2.294c-1.872,2.386-5.23,2.857-8.221,3.4s-6.374,1.725-7.34,4.6c-.654,1.909,0,3.977.355,5.959a1.8,1.8,0,0,1-.08,1.224c-.471.771-1.639.447-2.52.612-1.694.361-2.129,2.545-2.2,4.283q-.1,2.974-.159,5.953a7.592,7.592,0,0,0,.177,2.2,7.78,7.78,0,0,0,1.707,2.772l6.643,7.985c2.948,3.537,6.074,7.66,5.5,12.237,1.395.612,3.058-.581,3.511-2.044a9.142,9.142,0,0,0-.22-4.534,55.6,55.6,0,0,1-1.064-7.862,8.067,8.067,0,0,1,.459-3.916,2.985,2.985,0,0,1,3.193-1.836c1.725.4,2.447,2.643,4.147,3.182a3.314,3.314,0,0,0,3.67-1.885,9.364,9.364,0,0,0,.7-4.375V269.02c0-1.836.061-3.806,1.187-5.244,1.4-1.787,4.7-2.57,6.9-2.5a5.852,5.852,0,0,1,3.933,1.585A5.078,5.078,0,0,0,908.922,264.352Z" transform="translate(-830.445 -240.58)" fill="#7c5c5c"/>
      <path id="Path_4353" data-name="Path 4353" d="M892.69,381.92l-6.3,25.888S881.424,407.777,892.69,381.92Z" transform="translate(-818.844 -294.986)" opacity="0.1"/>
      <path id="Path_4354" data-name="Path 4354" d="M911.052,374.85s8.245,13.51,5.028,27.484l-1.535.11S917.285,395.977,911.052,374.85Z" transform="translate(-858.73 -292.242)" opacity="0.1"/>
      <path id="Path_4355" data-name="Path 4355" d="M939.864,499.364s-10.129-3.353-10.863,4.424C928.976,503.788,930.884,498.458,939.864,499.364Z" transform="translate(-892.747 -340.293)" opacity="0.1"/>
      <path id="Path_4356" data-name="Path 4356" d="M854.489,426.81s2.012,14.073-1.609,19.72a44.105,44.105,0,0,0,17.7,2.417l1.223-22.137Z" transform="translate(-778.128 -312.41)" opacity="0.1"/>
      <path id="Path_4357" data-name="Path 4357" d="M871.65,444.549l.973.545,6.239-14.073-5.835-5.231h-.3C872.818,426.488,874.445,438.584,871.65,444.549Z" transform="translate(-796.665 -312.014)" opacity="0.1"/>
      <path id="Path_4358" data-name="Path 4358" d="M844.979,425.83s2.012,14.073-1.609,19.714a43.975,43.975,0,0,0,17.7,2.417l7.04-22.131Z" transform="translate(-768.617 -312.03)" fill="#ee8084"/>
      <path id="Path_4359" data-name="Path 4359" d="M774.8,799.233a4.558,4.558,0,0,0,3.909,3.989c5.462.814,18.619,2.894,21.941,4.479,4.227,2.013,20.919.612,21.727-1.407a3.2,3.2,0,0,0-.288-2.448,6.447,6.447,0,0,0-2.7-2.9,7.14,7.14,0,0,0-1.223-.539c-3.144-1.046-9.083-3.273-10.686-5.611,0,0-7.407-6.48-9.518-9.979a4.832,4.832,0,0,0-3.866-2.411c-1.762-.08-3.725.808-4.532,4.668,0,0-9.646,5.507-12.233.679,0,0-.4,7.416-2.006,9.447h0a2.693,2.693,0,0,0-.526,2.031Z" transform="translate(-681.04 -450.432)" fill="#a27772"/>
      <path id="Path_4360" data-name="Path 4360" d="M774.8,808.621a4.558,4.558,0,0,0,3.909,3.989c5.462.814,18.619,2.894,21.941,4.479,4.227,2.013,20.919.612,21.727-1.407a3.194,3.194,0,0,0-.288-2.447,6.448,6.448,0,0,0-2.7-2.9c-2.722,1.836-8.765,3.573-22.057,1.5-12.68-1.982-18.962-3.922-22.02-5.244h0A2.693,2.693,0,0,0,774.8,808.621Z" transform="translate(-681.043 -459.82)" opacity="0.1"/>
      <g id="Group_2024" data-name="Group 2024" transform="translate(33.883 10.684)" opacity="0.1">
        <path id="Path_4361" data-name="Path 4361" d="M943.017,269.188v-.1a18.026,18.026,0,0,1-.612-4.571,30.164,30.164,0,0,0,.612,3.671A2.229,2.229,0,0,1,943.017,269.188Z" transform="translate(-938.028 -260.102)"/>
        <path id="Path_4362" data-name="Path 4362" d="M864.8,285.219a5.818,5.818,0,0,0-.5,2.3,6.941,6.941,0,0,1,.5-3.206,2.973,2.973,0,0,1,3.187-1.836c1.725.4,2.447,2.643,4.153,3.182a3.321,3.321,0,0,0,3.67-1.885,9.313,9.313,0,0,0,.7-4.381v-5.042c0-1.836.061-3.806,1.187-5.244,1.407-1.793,4.7-2.57,6.9-2.5a5.859,5.859,0,0,1,3.939,1.591,5.081,5.081,0,0,0,4.147,1.475,3.585,3.585,0,0,0,2.887-2.5c.165-.649.122-1.346.312-1.989.471-1.579,2.159-2.4,3.291-3.6a6.59,6.59,0,0,0,1.694-4.283,6.86,6.86,0,0,1-1.694,5.158c-1.132,1.224-2.82,2.025-3.291,3.6-.19.612-.147,1.34-.312,1.989a3.584,3.584,0,0,1-2.887,2.5,5.081,5.081,0,0,1-4.147-1.475,5.859,5.859,0,0,0-3.939-1.591c-2.2-.067-5.505.71-6.9,2.5-1.125,1.438-1.181,3.414-1.187,5.244v5.042a9.263,9.263,0,0,1-.7,4.375,3.33,3.33,0,0,1-3.67,1.891c-1.688-.538-2.447-2.778-4.153-3.182A3.089,3.089,0,0,0,864.8,285.219Z" transform="translate(-848.077 -257.3)"/>
        <path id="Path_4363" data-name="Path 4363" d="M927.831,293.053a7.734,7.734,0,0,0,1.713,2.766l6.643,7.985c2.8,3.359,5.75,7.25,5.505,11.54-.2-3.934-2.942-7.514-5.505-10.634l-6.643-7.985a7.734,7.734,0,0,1-1.713-2.766,7.639,7.639,0,0,1-.177-2.209A5.815,5.815,0,0,0,927.831,293.053Z" transform="translate(-927.637 -270.672)"/>
        <path id="Path_4364" data-name="Path 4364" d="M925.15,327.427a4.709,4.709,0,0,0,.2-1.077,5.422,5.422,0,0,1-.2,1.982c-.453,1.456-2.11,2.662-3.511,2.037a8.547,8.547,0,0,0,.073-.881C923.107,330.046,924.722,328.859,925.15,327.427Z" transform="translate(-907.634 -284.101)"/>
      </g>
      <path id="Path_4366" data-name="Path 4366" d="M932.851,790.82s-6.569,7.74-14.851,2.539" transform="translate(-879.006 -453.699)" opacity="0.1"/>
      <path id="Path_4367" data-name="Path 4367" d="M941.42,641.23s4.643,2.9,4.789,4.558-2.4-1.224-2.4-1.224Z" transform="translate(-906.696 -395.636)" opacity="0.1"/>
      <path id="Path_4368" data-name="Path 4368" d="M938.634,677.59a9.706,9.706,0,0,0,5.719,2.233c3.474.153,3.181,4.681.911,3.322A56.934,56.934,0,0,1,938.634,677.59Z" transform="translate(-905.744 -409.749)" opacity="0.1"/>
      <path id="Path_4369" data-name="Path 4369" d="M947.1,682.34s2.227,10.946,4.037,8.835" transform="translate(-915.091 -411.593)" opacity="0.1"/>
    </g>
    <g id="Group_2059" data-name="Group 2059" transform="translate(-250 -911)">
      <ellipse id="Ellipse_244" data-name="Ellipse 244" cx="62.483" cy="10.334" rx="62.483" ry="10.334" transform="translate(785.839 1671.006)" fill="#ea6065" opacity="0.1"/>
      <path id="Path_4236" data-name="Path 4236" d="M532.13,250.155c-1.322-8.9-9.4-29.657-9.4-29.657h0q-.211-.918-.477-1.836c-5.733-19.7-13.669-21.415-13.669-21.415l-28.427-6.119a2.2,2.2,0,0,1,.612.569,3.942,3.942,0,0,0-.447.067,11.135,11.135,0,0,1-2.49-5.384c-.055-.294-.1-.612-.141-.912a20,20,0,0,0-1.628-30.06c-.3-.233-.612-.459-.912-.673,1.34-1.426,1.383-3.408.379-5.39-2.239-4.65-7.11-7.593-12.115-9.031a20.538,20.538,0,0,0-11.76-.251,42.479,42.479,0,0,0-6.155,2.857c-3.775,1.884-7.954,3.377-10.775,6.48a3.162,3.162,0,0,0-1.077,2.6,7.016,7.016,0,0,0,1.071,1.891,5.705,5.705,0,0,1,.055,4.736,45.9,45.9,0,0,0-1.756,4.552,4.759,4.759,0,0,0,.948,4.571,20.14,20.14,0,0,0,1.774,1.224,9.3,9.3,0,0,1,1.695,1.9q1.689,2.264,3.365,4.546a46.83,46.83,0,0,1,4.216,6.406,31.226,31.226,0,0,0,2.606,4.895,7.261,7.261,0,0,0,1.12,1.175l-.33-.128a5.1,5.1,0,0,0,3.738,1.524h.171a1.028,1.028,0,0,0,.685-.281v.612c.067,2.184.055,4.509-.1,6.694l-.263-.135a2.294,2.294,0,0,0-2.447.257l-26.169,21s-5.69,7.783-4.895,21.219l-4.589,20.148s-5.733,17.1-1.322,29.3,6.969,19.188,6.969,19.188,1.762,13.871,4.411,15,3.793,1.744,3.793,1.744l.526,3.316h0s.177.324.489.869c1.927,3.353,9.068,15.186,13.216,13.92a53.039,53.039,0,0,1,.673,9.722l4.106,27.564s2.863,7.5,2.686,11.423,3.341,9.527,3.341,9.527a18.2,18.2,0,0,0-1.762,12.818c1.676,7.342,3.793,41.166,3.793,41.166l3.059,8.2-.086,9.612a9.178,9.178,0,0,1-1.9,4.283c-1.982,2.154-1.836,4.644-6.614,7.587s-7.807,4.057-7.807,7.954a10.237,10.237,0,0,1-.147,1.621c-.441,2.863-1.3,4.418,7.489,5.25a23.165,23.165,0,0,0,17.205-5.751s1.517-2.753,8.664-3.867c0,0,2.447-.129,2.576-2.288.049-.746.037-2.172,0-3.745-.116-2.992-.4-6.486-.783-6.657-.477-.214-1.309-3.224-1.6-4.314h1.988s1.836-13.871,0-22.853a37.075,37.075,0,0,1-.177-15.352l-.355-23.722s-2.447-2.619-.526-7.244,0-27.472,0-27.472.71-8.2,2.735-10.12.1-12.011,0-12.537l3.61,12.109s1.585,24.07,4.944,28.427l.967,10.9s6.877,10.034,5.556,15.437,1.413,24.945,1.413,24.945v19.977s-3.09,8.021,1.224,10.9l1.836-.073c-.612.569-1.083,1.426-1.8,2.166-.826.85-1.3,4.087-1.56,6.871-.22,2.356-.294,4.381-.294,4.381a7.214,7.214,0,0,0,5.293,3.139c3.457.2,14.85,8.866,14.85,8.866s11.252,0,14.164-.612l.171-.043a3.824,3.824,0,0,0,2.2-1.793,4.589,4.589,0,0,0,.526-3.3c-.361-1.719-1.725-3.6-4.748-5.207-7.52-3.965-8.639-7.679-8.639-7.679l-4.938-7.41h.7s-.435-7.85,4.938-16.661l-.349-38.81s2.2-13.345-1.585-20.589c0,0-.312-7.673,2.221-10.028s-3.371-26.163-3.371-26.163-1.224-12.782-2.661-24.444h0c5.953,5.647,12.127-14.685,13.167-18.3h.153l-.067-.263c.043-.171.067-.257.067-.257h0s-1.322-4.7-.355-3.745,3.353-2.619,3.353-2.619-.355-19.451,3.794-29.253S532.13,250.155,532.13,250.155Zm-17.744,12.378.031-.055c.612,11.876-.116,37.219-.116,37.219s-.82,3.249-1.695,7.073l-.612-24.077h0l-.612-22.681Zm-75.937-8.187s3,37.5,0,42.909a28.329,28.329,0,0,0-2.16,7.41c-.991-2.6-3.09-8.707-2.337-11.943.973-4.185-1.94-15.18-1.94-15.437s-.263-6.119,1.835-10.6.722-6.418.722-6.418S436.331,252.927,438.449,254.347Z" transform="translate(362.883 1185.335)" fill="url(#linear-gradient-2)"/>
      <path id="Path_4237" data-name="Path 4237" d="M457.4,453.537c-2.613,11.484-13-5.88-15.37-10.047-.306-.545-.477-.863-.477-.863l1.126-5.28,5.953-2.447a16.63,16.63,0,0,1,2.668,1.738C454.558,439.2,459.41,444.641,457.4,453.537Z" transform="translate(351.24 1070.605)" fill="#d38884"/>
      <path id="Path_4238" data-name="Path 4238" d="M588.318,432.783a.8.8,0,0,1-.067.257,1.3,1.3,0,0,1-.08.275c-1.022,3.585-7.079,23.771-12.928,18.166-6.4-6.119-3.292-20.265-3.292-20.265h.043l13.461-1.377,2.668,2.741h0Z" transform="translate(300.918 1072.569)" fill="#d38884"/>
      <path id="Path_4239" data-name="Path 4239" d="M534.217,533.1l.343,38.547a31.614,31.614,0,0,0-4.846,16.52l-17.4.685c-4.246-2.857-1.224-10.818-1.224-10.818V558.19S508.4,538.8,509.7,533.428s-5.452-15.3-5.452-15.3l-.954-10.824c-3.292-4.326-4.852-28.219-4.852-28.219l-3.53-12.066c.1.52,1.933,10.591,0,12.445s-2.686,10.041-2.686,10.041,1.9,22.688,0,27.27.514,7.189.514,7.189l.349,23.55a36.828,36.828,0,0,0,.171,15.235c1.817,8.915,0,22.688,0,22.688H474.592l.086-9.612-3.023-8.138s-2.08-33.591-3.726-40.866a18.258,18.258,0,0,1,1.725-12.727s-3.457-5.537-3.286-9.435-2.668-11.332-2.668-11.332l-4.026-27.356a53.142,53.142,0,0,0-1.995-15.584c-2.337-7.8-5.8-18.013-5.8-18.013l3.91.349,19.726,1.756s47.963-3.224,50.111-.545a9,9,0,0,1,.906,2.8c2.154,9.673,5,39.979,5,39.979s5.8,23.636,3.31,25.973-2.184,9.949-2.184,9.949C536.389,519.826,534.217,533.1,534.217,533.1Z" transform="translate(347.23 1071.583)" fill="#ee8084"/>
      <path id="Path_4240" data-name="Path 4240" d="M497.654,694.8c-.135,2.148-2.527,2.276-2.527,2.276-7.012,1.1-8.5,3.83-8.5,3.83a22.521,22.521,0,0,1-16.881,5.715c-8.627-.832-7.789-2.368-7.342-5.213a10.783,10.783,0,0,0,.141-1.6c0-3.9,2.986-5.005,7.66-7.954s4.546-5.391,6.492-7.532,2.148-6.3,2.148-6.3c2.2-3.836,7.789.612,7.789.612.263,1.358,8.566,1.169,8.566,1.169s1.1,4.418,1.67,4.675c.373.171.655,3.634.765,6.608C497.69,692.644,497.7,694.057,497.654,694.8Z" transform="translate(343.246 976.844)" fill="#b07473"/>
      <path id="Path_4241" data-name="Path 4241" d="M497.654,704.082c-.135,2.148-2.527,2.276-2.527,2.276-7.012,1.1-8.5,3.83-8.5,3.83a22.522,22.522,0,0,1-16.881,5.715c-8.627-.832-7.789-2.368-7.342-5.213,3.855.954,11.221,2.288,15.523-.049,5.978-3.243,10.267-5.507,10.267-5.507l9.447-4.754C497.69,701.928,497.7,703.341,497.654,704.082Z" transform="translate(343.246 967.56)" opacity="0.1"/>
      <path id="Path_4242" data-name="Path 4242" d="M583.739,707.927a3.732,3.732,0,0,1-2.154,1.78l-.165.043c-2.857.612-13.9.612-13.9.612s-11.166-8.633-14.544-8.829a7.1,7.1,0,0,1-5.195-3.121s.067-2.007.281-4.344c.263-2.766.722-5.978,1.536-6.822,1.493-1.56,1.836-3.671,5.195-2.337,0,0,4.8-8.456,10.45-1.921l5.849,8.872s1.1,3.671,8.511,7.654c2.961,1.591,4.283,3.463,4.656,5.17A4.559,4.559,0,0,1,583.739,707.927Z" transform="translate(310.007 975.273)" fill="#b07473"/>
      <path id="Path_4243" data-name="Path 4243" d="M583.739,716.529c-.661.557-1.389,1.156-2.154,1.78l-.165.043c-2.857.612-13.9.612-13.9.612s-11.166-8.633-14.544-8.829a7.1,7.1,0,0,1-5.195-3.12s.067-2.007.281-4.344c3.439,1.028,8.646,2.845,10.041,4.8,2.141,2.98,8.646,7.14,8.646,7.14s12.127-1.169,17.511-1.328A4.559,4.559,0,0,1,583.739,716.529Z" transform="translate(310.007 966.671)" opacity="0.1"/>
      <path id="Path_4244" data-name="Path 4244" d="M508.9,218.647l-15.969,16.881s-19.353-1.426-15.976-7.14c1.719-2.912,1.989-9.007,1.836-14.305-.141-5.109-.667-9.459-.667-9.459s27.142-13.51,25.086-.912a20.734,20.734,0,0,0-.073,7.189C504.3,217.265,508.9,218.647,508.9,218.647Z" transform="translate(337.649 1162.425)" fill="#d38884"/>
      <path id="Path_4245" data-name="Path 4245" d="M504.182,203.712a20.734,20.734,0,0,0-.073,7.189A19.922,19.922,0,0,1,489.9,216.83c-3.671,0-7.642-3.016-10.61-4.76-.141-5.115-.171-7.446-.171-7.446S506.262,191.114,504.182,203.712Z" transform="translate(336.657 1162.425)" opacity="0.1"/>
      <path id="Path_4246" data-name="Path 4246" d="M504.042,181.486a20,20,0,1,1-7.526-15.627A20,20,0,0,1,504.042,181.486Z" transform="translate(342.511 1176.727)" fill="#d38884"/>
      <path id="Path_4247" data-name="Path 4247" d="M528.454,436.95c-4.98,11.852-37.017,12.1-37.017,12.1V436.124L489.5,436c.838,3.7-1.175,12.727-1.175,12.727C463,452.3,456.83,437.868,456.83,437.868l.881-4.938,19.726,1.756s47.963-3.224,50.111-.545a9,9,0,0,1,.906,2.808Z" transform="translate(345.309 1071.37)" opacity="0.1"/>
      <path id="Path_4248" data-name="Path 4248" d="M491.437,367.781V354.858l-1.94-.122c.838,3.671-1.175,12.727-1.175,12.727-19.053,2.686-27.264-4.815-30.158-8.694a11.833,11.833,0,0,1-1.334-2.154l7.734-43.5,1.836-64.025,2.772-11.234.642-5.39V232.4h.067l1.97.844,11.79,5.1,13.393-10.114.2-.141.667-.508,1.107.887,2.753,2.209,8.829,57.019s15.3,43.9,18.16,61.62c.116.71.208,1.371.281,1.989C530.919,367.481,491.437,367.781,491.437,367.781Z" transform="translate(345.309 1151.075)" fill="#fbe1e2"/>
      <ellipse id="Ellipse_246" data-name="Ellipse 246" cx="1.138" cy="1.138" rx="1.138" ry="1.138" transform="translate(829.244 1389.54)" fill="#67647e"/>
      <ellipse id="Ellipse_247" data-name="Ellipse 247" cx="1.138" cy="1.138" rx="1.138" ry="1.138" transform="translate(829.77 1399.929)" fill="#67647e"/>
      <ellipse id="Ellipse_248" data-name="Ellipse 248" cx="1.138" cy="1.138" rx="1.138" ry="1.138" transform="translate(830.908 1416.749)" fill="#67647e"/>
      <ellipse id="Ellipse_249" data-name="Ellipse 249" cx="1.138" cy="1.138" rx="1.138" ry="1.138" transform="translate(832.787 1434.866)" fill="#67647e"/>
      <ellipse id="Ellipse_250" data-name="Ellipse 250" cx="1.138" cy="1.138" rx="1.138" ry="1.138" transform="translate(833.924 1451.876)" fill="#67647e"/>
      <ellipse id="Ellipse_251" data-name="Ellipse 251" cx="1.138" cy="1.138" rx="1.138" ry="1.138" transform="translate(835.062 1469.993)" fill="#67647e"/>
      <ellipse id="Ellipse_252" data-name="Ellipse 252" cx="1.138" cy="1.138" rx="1.138" ry="1.138" transform="translate(834.61 1487.914)" fill="#67647e"/>
      <path id="Path_4249" data-name="Path 4249" d="M470.568,322.383s-1.273,16.661-3.61,21.507-3.377,18.441-3.377,18.441l-5.427-.612a11.841,11.841,0,0,1-1.334-2.154l7.734-43.5,1.836-64.025,2.778-11.24.642-5.39.073-.031a2.19,2.19,0,0,1,1.933.031l.257.135q-.116.33-.22.679c-2.117,6.626-2.906,18.839-2.906,18.839s3.059,22.339,3.377,32.728S470.568,322.383,470.568,322.383Z" transform="translate(345.313 1148.13)" opacity="0.1"/>
      <path id="Path_4250" data-name="Path 4250" d="M451.3,436.656a3.131,3.131,0,0,1-.208.4c-2.1,3.555-7.44,5.813-9.062,6.431-.306-.545-.477-.863-.477-.863l1.126-5.28,5.953-2.447a16.63,16.63,0,0,1,2.668,1.756Z" transform="translate(351.24 1070.605)" opacity="0.1"/>
      <path id="Path_4251" data-name="Path 4251" d="M426.061,298.81l-4.938,2.943-4.5,20s-5.629,16.967-1.3,29.088,6.841,19.059,6.841,19.059,1.732,13.767,4.332,14.893,3.72,1.732,3.72,1.732l.52,3.292s7.049-2.392,9.539-6.608-1.836-14.685-1.836-14.685-3.72-8.921-2.766-13.075-1.909-15.064-1.909-15.3-.257-6.063,1.836-10.524.7-6.363.7-6.363l-1.3-12.727Z" transform="translate(362.054 1123.428)" fill="#d64f54"/>
      <path id="Path_4252" data-name="Path 4252" d="M554.167,353.775s-13.075,4.932-17.23.612-3.726-24.59-3.726-24.59-3.977-37.4-6.492-43.546-1.224-50.478-1.224-50.478-1.689-5.733-3.163-7.232a1.607,1.607,0,0,0-.312-.251l.508.11,1.774.379,2.753,2.209,8.829,57.019s15.3,43.9,18.16,61.62Z" transform="translate(320.006 1150.8)" opacity="0.1"/>
      <path id="Path_4253" data-name="Path 4253" d="M588.789,433.3h-.147c-1.646.214-16.171,1.97-16.233-1.052a8.851,8.851,0,0,1,.055-1.046l13.461-1.377,2.668,2.741h0c.049.177.086.33.122.453Z" transform="translate(300.447 1072.577)" opacity="0.1"/>
      <path id="Path_4254" data-name="Path 4254" d="M574.851,266.07l9.545,4.98s7.954,20.6,9.227,29.424c0,0,5.892,23.654,1.836,33.383s-3.72,29.039-3.72,29.039-2.337,3.549-3.292,2.6.349,3.72.349,3.72-16.318,2.166-16.385-1.04,3.745-18.527,3.745-18.527,1.04-36.448-.434-42.163S574.851,266.07,574.851,266.07Z" transform="translate(300.447 1136.135)" fill="#d64f54"/>
      <path id="Path_4255" data-name="Path 4255" d="M524.907,329.52s-5.372,13.155-7.1,14.024.349,4.326.349,4.326S527.936,334.195,524.907,329.52Z" transform="translate(321.909 1111.508)" opacity="0.1"/>
      <path id="Path_4256" data-name="Path 4256" d="M519.294,254.1c.061-.251-6.406,6.345-8.138,7.342S517.477,261.377,519.294,254.1Z" transform="translate(324.316 1140.786)" opacity="0.1"/>
      <path id="Path_4257" data-name="Path 4257" d="M489.671,327.82s-9.869,6.382-8.566,8.909S489.671,327.82,489.671,327.82Z" transform="translate(335.932 1112.167)" opacity="0.1"/>
      <path id="Path_4258" data-name="Path 4258" d="M524.47,480.07a52.83,52.83,0,0,0,21.47,6.73Z" transform="translate(319.055 1053.073)" opacity="0.1"/>
      <path id="Path_4259" data-name="Path 4259" d="M491.5,501.3s7.789,9.79,11.344,10.041S491.5,501.3,491.5,501.3Z" transform="translate(331.851 1044.832)" opacity="0.1"/>
      <path id="Path_4260" data-name="Path 4260" d="M503.368,564c-.349.171-4.418,8.829-8.566,9.092S503.368,564,503.368,564Z" transform="translate(330.893 1020.495)" opacity="0.1"/>
      <path id="Path_4261" data-name="Path 4261" d="M568.33,594.837s7.722-1.732,9.441,3.806C577.771,598.625,577.251,596.893,568.33,594.837Z" transform="translate(302.031 1008.626)" opacity="0.1"/>
      <path id="Path_4262" data-name="Path 4262" d="M559.84,646.331s9.355-1.909,11.344.691S559.84,646.331,559.84,646.331Z" transform="translate(305.326 988.801)" opacity="0.1"/>
      <path id="Path_4263" data-name="Path 4263" d="M510.762,654c0,.086-9.52,1.909-9.178,3.12s10.157,1.04,10.506-.869A1.836,1.836,0,0,0,510.762,654Z" transform="translate(327.941 985.562)" opacity="0.1"/>
      <path id="Path_4264" data-name="Path 4264" d="M554.75,667.071s15.645-1.909,14.685,1.383S554.75,667.071,554.75,667.071Z" transform="translate(307.302 980.703)" opacity="0.1"/>
      <path id="Path_4265" data-name="Path 4265" d="M420.89,352.44c.086.257,10.3,1.646,11.686,4.938,0,0-10.04-4.681-11.625-4.681" transform="translate(359.259 1102.611)" opacity="0.1"/>
      <path id="Path_4266" data-name="Path 4266" d="M439.361,396.16s-8.486,2.686-7.881,6.73S430.618,401.018,439.361,396.16Z" transform="translate(355.16 1085.642)" opacity="0.1"/>
      <path id="Path_4267" data-name="Path 4267" d="M437.92,427.583s3.09-4.24,6.033-3.463S437.92,427.583,437.92,427.583Z" transform="translate(352.649 1074.826)" opacity="0.1"/>
      <path id="Path_4268" data-name="Path 4268" d="M496.535,165.857a4.815,4.815,0,0,1-.991.74c-2.447,1.426-3.12,3.622-4.283,6.155-1.083,2.319-2.276,4.772-4.46,6.088-2.821,1.7-6.535,1.077-9.465,2.558a7.342,7.342,0,0,0-3.916,7.238,20.888,20.888,0,0,0,.832,3.316,23.65,23.65,0,0,1,.893,7.2,1.23,1.23,0,0,1,0,.214,20,20,0,1,1,21.415-33.511Z" transform="translate(342.492 1176.729)" opacity="0.1"/>
      <path id="Path_4269" data-name="Path 4269" d="M489.68,152.475c-2.2-4.613-6.975-7.538-11.888-8.964a19.967,19.967,0,0,0-11.546-.245,42.356,42.356,0,0,0-6.039,2.833c-3.708,1.872-7.783,3.353-10.573,6.431a3.222,3.222,0,0,0-1.059,2.582,7.209,7.209,0,0,0,1.046,1.872,5.682,5.682,0,0,1,.055,4.705,43.172,43.172,0,0,0-1.725,4.522,4.757,4.757,0,0,0,.93,4.534,16.964,16.964,0,0,0,1.75,1.224,9.209,9.209,0,0,1,1.658,1.884l3.3,4.515a45.8,45.8,0,0,1,4.136,6.357,30.287,30.287,0,0,0,2.558,4.852,5.537,5.537,0,0,0,4.638,2.478.9.9,0,0,0,.734-.349.966.966,0,0,0,.092-.459,23.486,23.486,0,0,0-.875-7.177,20.7,20.7,0,0,1-.832-3.316,7.373,7.373,0,0,1,3.916-7.238c2.937-1.481,6.651-.857,9.465-2.551,2.19-1.322,3.384-3.775,4.46-6.119,1.181-2.533,1.836-4.73,4.283-6.155S490.9,154.9,489.68,152.475Z" transform="translate(348.827 1184.09)" fill="#707071"/>
      <path id="Path_4270" data-name="Path 4270" d="M501.63,693.06s3.059,3.9,2.264,6.119S501.63,693.06,501.63,693.06Z" transform="translate(327.92 970.401)" opacity="0.1"/>
      <path id="Path_4271" data-name="Path 4271" d="M569.28,705.61s.679-5.225,3.4-5.274,2.857-.282,4.938.52,4.032,2.044,3.408,2.227-3.579-2.986-6.614-1.364A21.852,21.852,0,0,0,569.28,705.61Z" transform="translate(301.662 967.604)" opacity="0.1"/>
      <path id="Path_4272" data-name="Path 4272" d="M481.649,247.972l8.566-6s-12.531-7.4-14.024-6.363-2.521,10.4-2.521,10.4Z" transform="translate(338.773 1147.999)" opacity="0.1"/>
      <path id="Path_4273" data-name="Path 4273" d="M481.589,247.268l8.566-6.119s-12.531-7.4-14.024-6.363S473.61,245.7,473.61,245.7Z" transform="translate(338.796 1148.317)" fill="#e1e7ef"/>
      <path id="Path_4274" data-name="Path 4274" d="M481.589,247.268l8.566-6.119s-12.531-7.4-14.024-6.363S473.61,245.7,473.61,245.7Z" transform="translate(338.796 1148.317)" fill="#fbe1e2"/>
      <path id="Path_4275" data-name="Path 4275" d="M458.962,234.695l-.257-.129a2.221,2.221,0,0,0-2.4.251l-25.7,20.846s-5.586,7.728-4.809,21.06l15.156,21.47s1.732-7.269,3.806-5.886c0,0,2.943,37.231,0,42.6s-4.24,25.453-4.24,25.453l9.955,1.126s1.04-13.6,3.377-18.441,3.61-21.507,3.61-21.507,2.1-24.2,1.756-34.594-3.377-32.728-3.377-32.728S456.686,241.119,458.962,234.695Z" transform="translate(357.384 1148.458)" fill="#d64f54"/>
      <path id="Path_4276" data-name="Path 4276" d="M515.117,241.382,504.44,237.43s13.6-14.893,15.3-6.633Z" transform="translate(326.829 1150.795)" opacity="0.1"/>
      <path id="Path_4277" data-name="Path 4277" d="M515.117,240.532,504.44,236.58s13.6-14.893,15.3-6.633Z" transform="translate(326.829 1151.125)" fill="#e1e7ef"/>
      <path id="Path_4278" data-name="Path 4278" d="M515.117,240.532,504.44,236.58s13.6-14.893,15.3-6.633Z" transform="translate(326.829 1151.125)" fill="#fbe1e2"/>
      <path id="Path_4279" data-name="Path 4279" d="M521.32,228.115a.612.612,0,0,1,.44.1Z" transform="translate(320.277 1150.87)" opacity="0.1"/>
      <path id="Path_4280" data-name="Path 4280" d="M523,226.423l28.329,6.119s7.8,1.732,13.424,21.3-7.709,43.54-7.709,43.54l-2.943-2.5,1.475,57.141s-13.075,4.932-17.23.612-3.72-24.609-3.72-24.609-3.983-37.4-6.5-43.546S526.9,234,526.9,234,524.591,226.081,523,226.423Z" transform="translate(319.625 1151.528)" fill="#d64f54"/>
      <path id="Path_4281" data-name="Path 4281" d="M565.124,285.777c-.4.367-.863,17.658.869,30.819a167.966,167.966,0,0,0,4.895,23.722l-2.57-52.724S566.336,284.651,565.124,285.777Z" transform="translate(303.419 1128.586)" opacity="0.1"/>
      <path id="Path_4282" data-name="Path 4282" d="M559.7,261.6c.691.434,3.726,7.618,2.337,10.561S559.7,261.6,559.7,261.6Z" transform="translate(305.38 1137.87)" opacity="0.1"/>
      <path id="Path_4283" data-name="Path 4283" d="M499.228,154.652A15.639,15.639,0,0,0,493,148.13a14.813,14.813,0,0,1,4.668,5.507c1.224,2.447.863,4.895-1.517,6.235s-3.12,3.622-4.283,6.155c-1.083,2.319-2.276,4.772-4.467,6.119-2.814,1.7-6.528,1.071-9.465,2.551a7.391,7.391,0,0,0-3.916,7.244,20.8,20.8,0,0,0,.838,3.31,23.668,23.668,0,0,1,.893,7.2.966.966,0,0,1-.1.459.875.875,0,0,1-.728.349,4.216,4.216,0,0,1-2.135-.4,4.968,4.968,0,0,0,3.671,1.438.722.722,0,0,0,.82-.808,23.477,23.477,0,0,0-.887-7.2,20.1,20.1,0,0,1-.838-3.316,7.373,7.373,0,0,1,3.916-7.238c2.937-1.481,6.651-.857,9.465-2.551,2.19-1.322,3.384-3.775,4.46-6.119,1.181-2.533,1.836-4.73,4.283-6.155S500.452,157.081,499.228,154.652Z" transform="translate(339.114 1181.913)" opacity="0.1"/>
    </g>
    <g id="Group_2027" data-name="Group 2027" transform="translate(514.42 510.276)" opacity="0.05">
      <path id="Path_4410" data-name="Path 4410" d="M398.485,354.236c-5.182,17.052,9.924,19.053,9.924,19.053l12.139,32.532c.985,5.543-11.589,21.69-11.589,21.69-.875,2.068-3.059,3.641-5.445,4.8a8.529,8.529,0,0,0,3.231-3.549s12.567-16.141,11.582-21.684l-12.139-32.538s-15.1-2-9.924-19.053c1.732-5.7,4.283-8.291,6.865-9.221C401.349,347.7,399.715,350.18,398.485,354.236Z" transform="translate(-395.184 -346.27)"/>
    </g>
    <path id="Path_4416" data-name="Path 4416" d="M290.377,776.8s-8.444,2.307-10.077-1.316" transform="translate(163.828 -2.589)" opacity="0.1"/>
    <ellipse id="Ellipse_267" data-name="Ellipse 267" cx="16.477" cy="2.784" rx="16.477" ry="2.784" transform="translate(922.789 798.552)" fill="#ea6065" opacity="0.1"/>
    <ellipse id="Ellipse_269" data-name="Ellipse 269" cx="16.477" cy="2.784" rx="16.477" ry="2.784" transform="translate(339.233 793.511)" fill="#ea6065" opacity="0.1"/>
    <g id="Group_2190" data-name="Group 2190" transform="translate(-806.63 242.141)">
      <ellipse id="Ellipse_312" data-name="Ellipse 312" cx="45.492" cy="10.213" rx="45.492" ry="10.213" transform="translate(1790.555 555.211)" fill="#ea6065" opacity="0.1"/>
      <path id="Path_4818" data-name="Path 4818" d="M694.581,303.075h5.406s4.955,38.291,1.352,41.9-13.515,5.856-14.866,0,0-27.48,0-27.48Z" transform="translate(1172.318 -17.02)" fill="#f08f93"/>
      <ellipse id="Ellipse_304" data-name="Ellipse 304" cx="32.886" cy="38.517" rx="32.886" ry="38.517" transform="translate(1798.65 214.202)" fill="#4d3536"/>
      <path id="Path_4819" data-name="Path 4819" d="M613.082,246.637s1.8,14.866-3.6,18.019,6.307,21.173,6.307,21.173l13.965,3.6,9.46-13.064-1.8-13.515s-10.812-10.812-5.856-20.722Z" transform="translate(1211.02 13.289)" fill="#ffc1c7"/>
      <path id="Path_4820" data-name="Path 4820" d="M613.082,246.637s1.8,14.866-3.6,18.019,6.307,21.173,6.307,21.173l13.965,3.6,9.46-13.064-1.8-13.515s-10.812-10.812-5.856-20.722Z" transform="translate(1211.02 13.289)" opacity="0.04"/>
      <path id="Path_4821" data-name="Path 4821" d="M575.352,567.233s-5.406,49.1,0,60.816,19.821,44.6,19.821,44.6l-4.505,9.46,12.163-2.7,4.955-9.46s-5.856-22.975-6.757-31.083-7.658-22.975-7.658-22.975l12.614-53.608Z" transform="translate(1228.479 -145.933)" fill="#fcced3"/>
      <path id="Path_4822" data-name="Path 4822" d="M662.869,549.567s.451,49.554,3.6,57.24l-1.8,67.123,9.911,1.323S689,618.942,686.745,605.427s.451-62.167.451-62.167Z" transform="translate(1183.757 -136.475)" fill="#fcced3"/>
      <circle id="Ellipse_305" data-name="Ellipse 305" cx="17.119" cy="17.119" r="17.119" transform="translate(1814.417 231.771)" fill="#fcced3"/>
      <path id="Path_4823" data-name="Path 4823" d="M649.279,430.435s-12.163,8.109-17.119,2.252-57.789,3.175-65.447,1.373,3.537-35.113,3.537-49.98c0-11.123,4.036-28.043,6.068-35.863.685-2.631,1.14-4.23,1.14-4.23s4.622-13.15,3.757-18.614a4.7,4.7,0,0,0-.338-1.2,2.468,2.468,0,0,0-.266-.455c-2.158-2.879-8.343-23.871-10.744-32.885a40.7,40.7,0,0,1-.969-4.054c0-1.351,16.668-5.406,20.835-5.6s5.293,5.6,5.293,5.6c1.351.9,7.658,16.668,7.658,16.668l5.856-14.866s-.451-3.153-.9-3.153,6.663-4.253,6.663-4.253,7.3,5.154,11.357,4.253,13.515,7.208,13.515,7.208-16.668,41.9-9.911,50.9S649.279,430.435,649.279,430.435Z" transform="translate(1233.13 -6.127)" fill="#f08f93"/>
      <path id="Path_4824" data-name="Path 4824" d="M603.115,772.86s-7.5,7.5-7.5,8.381l-6.175-2.646s-2.647,9.7-3.088,11.027-7.94,13.233-15.438,18.526,0,11.909,6.616,10.586,23.378-16.32,23.378-16.32,11.468,0,15.438-8.822C616.348,793.591,605.761,771.978,603.115,772.86Z" transform="translate(1232.081 -249.67)" fill="#4e4e4e"/>
      <path id="Path_4825" data-name="Path 4825" d="M670.909,794.857s-11.573-8.409-12.318-.6-.746,24.927-.746,24.927-3.6,11.262,7.658,9.911,12.163-4.5,12.163-4.5l-5.406-21.623v-9.46Z" transform="translate(1186.529 -259.655)" fill="#4e4e4e"/>
      <path id="Path_4826" data-name="Path 4826" d="M586.814,333.272c-2.158-2.879-8.343-23.871-10.744-32.886h2.185s5.487,21.474,8.825,33.34A2.469,2.469,0,0,0,586.814,333.272Z" transform="translate(1226.926 -15.683)" opacity="0.1"/>
      <path id="Path_4827" data-name="Path 4827" d="M622.929,397.182s-6.307.451-29.282-4.054a45.93,45.93,0,0,1-4.744-1.176c.685-2.631,1.14-4.23,1.14-4.23s4.622-13.15,3.757-18.614c1.077,3.784,1.879,6.338,2.1,6.451.9.451,29.732,5.406,33.787,7.208S622.929,397.182,622.929,397.182Z" transform="translate(1220.543 -49.862)" opacity="0.1"/>
      <path id="Path_4828" data-name="Path 4828" d="M672.727,307.112s12.425-1.533,13.2.482,3.923,21.485,5.275,23.982,1.8,17.973-3.6,18.472-12.614-4.992-11.262-9.486S672.727,307.112,672.727,307.112Z" transform="translate(1178.855 -18.75)" opacity="0.1"/>
      <path id="Path_4829" data-name="Path 4829" d="M656.168,388.652s18.921,2.252,22.074,0,16.218-2.252,13.515,4.054-26.128,6.757-26.128,6.757H652.114Z" transform="translate(1189.106 -58.9)" fill="#ffc1c7"/>
      <path id="Path_4830" data-name="Path 4830" d="M571.8,294.112h-3.153s-6.307,1.351-5.406,21.173-5.406,32.886,17.569,37.39,29.282,4.054,29.282,4.054,10.812-12.614,6.757-14.416-32.886-6.757-33.787-7.208S571.8,294.112,571.8,294.112Z" transform="translate(1233.385 -12.563)" fill="#f08f93"/>
      <path id="Path_4831" data-name="Path 4831" d="M674.335,282.5s-7.894-29.614-14.2-29.614-13.515,1.351-8.109,7.208,12.163,12.163,12.614,15.317a42.447,42.447,0,0,0,2.253,7.658Z" transform="translate(1190.096 7.94)" fill="#ffc1c7"/>
      <path id="Path_4832" data-name="Path 4832" d="M676.312,307.112s12.425-1.533,13.2.482,3.923,21.485,5.275,23.982,1.8,17.973-3.6,18.472-12.614-4.992-11.262-9.486S676.312,307.112,676.312,307.112Z" transform="translate(1177.072 -18.75)" fill="#f08f93"/>
      <circle id="Ellipse_306" data-name="Ellipse 306" cx="16.218" cy="16.218" r="16.218" transform="translate(1810.813 216.454)" fill="#4d3536"/>
    </g>
    <g id="Group_2293" data-name="Group 2293" transform="translate(0 -1322.698)">
      <g id="Group_2280" data-name="Group 2280" transform="translate(677 1626.157)">
        <path id="Path_4997" data-name="Path 4997" d="M290.757,89.535l-.536,5.912a55.843,55.843,0,0,1-55.613,50.791h-4.616l-8.137,11.585c-.886,1.261-4.067,9.22-4.067,9.22s-2.983-8.956-3.2-11.116l-.951-9.273.053-.415h0a18.36,18.36,0,0,1-18.3-16.936l-1.749-22.475a39.594,39.594,0,0,1,31.9-41.936l31.2-6.077A28.657,28.657,0,0,1,290.757,89.535Z" transform="translate(-193.509 -55.031)" fill="#8a8a8a"/>
        <path id="Path_4998" data-name="Path 4998" d="M217.4,83.56c-6.212,3.205-13.869,11.112-12.447,25.035,2.088,20.446,33.905,27.81,58.06,22S285.254,89.177,274,81.7C256.97,70.392,228.253,77.96,217.4,83.56Z" transform="translate(-196.278 -59.348)" fill="#cfcfcf"/>
        <path id="Path_4999" data-name="Path 4999" d="M260.462,161.966c-1.065-.127-.77-1.457.361-1.64,8.508-.608,12.814-2.222,21.055-7.134s12.805-8.28,13.37-13.031c.12-1,2.312-.711,1.927.634-3.142,11.519-18.84,18.654-19.119,18.727C268.446,162.008,266.782,161.973,260.462,161.966Z" transform="translate(-209.796 -65.547)" fill="#8a8a8a"/>
        <text id="Developer" transform="matrix(0.996, -0.087, 0.087, 0.996, 13.417, 52.513)" fill="#444" font-size="15" font-family="RobotoSlab-Regular, Roboto Slab"><tspan x="0" y="0">Developer</tspan></text>
      </g>
      <g id="Group_2281" data-name="Group 2281" transform="translate(891.317 1608.828) rotate(8)">
        <path id="Path_5001" data-name="Path 5001" d="M442.258,162.33c-1,.253-1.409-1.088-.5-1.652,4.821-3,12.054-8.152,16.794-20.66,4.26-11.241,2.268-24.261.388-28.879-.4-.976.965-1.915,1.577-1.062,9.6,13.4,9.853,32.155-4.223,44.6A33.488,33.488,0,0,1,442.258,162.33Z" transform="translate(-354.786 219.167) rotate(-39)" fill="#cfcfcf"/>
        <path id="Path_5002" data-name="Path 5002" d="M402.5,149.393c-16.132.011-25.512-7.943-29.035-9.414l-13.419,6.163,1.8-14.324c-.173-.189-.347-.377-.528-.566C353.9,123.105,349.2,111.142,349.2,97.8c0-21.661,14.664-33.3,27.264-36.1C448.454,45.709,444.93,149.363,402.5,149.393Z" transform="translate(-303.003 264.287) rotate(-47)" fill="#cfcfcf"/>
        <text id="DevOps_" data-name="DevOps " transform="translate(11.254 41.652) rotate(3)" fill="#444" font-size="15" font-family="RobotoSlab-Regular, Roboto Slab"><tspan x="0" y="0">DevOps </tspan></text>
        <text id="Engineer" transform="translate(8.258 64.495) rotate(3)" fill="#444" font-size="15" font-family="RobotoSlab-Regular, Roboto Slab"><tspan x="0" y="0">Engineer</tspan></text>
        <path id="Path_5003" data-name="Path 5003" d="M344.657,73.366c4.525-7.608,14.154-18.435,33.186-21.536a1.007,1.007,0,0,0-.114-2c-11.756-.424-30.49,2.257-35.446,22.548A1.3,1.3,0,0,0,344.657,73.366Z" transform="translate(-326.611 215.306) rotate(-39)" fill="#cfcfcf"/>
      </g>
      <g id="Group_2282" data-name="Group 2282" transform="translate(975 1658.758)">
        <path id="Path_5004" data-name="Path 5004" d="M38.221,242.778c3.291,23.559,28.766,42.6,62.53,48.762,7.162,1.308,10.117,2.03,18.157,2.03h7.1c2.186,19.975-5.252,17.5-7.1,25.905,9.548,0,31.606-25.905,31.606-25.905s15.852-6.763,22.041-13.007c21.977-22.171,12.792-55.342-23.924-66.255a68.867,68.867,0,0,0-10.925-2.084l-47.991-6.077C30.21,195.479,38.221,242.778,38.221,242.778Z" transform="translate(-29.585 -204.578)" fill="#8a8a8a"/>
        <path id="Path_5005" data-name="Path 5005" d="M157.778,229.394S186.6,241.648,175.1,267.207c-13.534,30.077-101.187,22.524-117.13-5.515-8.694-15.291-3.059-34.747,12.439-40.343C90.339,214.154,132.362,219.407,157.778,229.394Z" transform="translate(-35.142 -207.879)" fill="#cfcfcf"/>
        <path id="Path_5006" data-name="Path 5006" d="M225.24,304.331c1.254-.149.907-1.715-.425-1.93-7.084-1.146-18.1-3.544-30.725-14.644-11.348-9.976-16.868-24.384-17.534-29.978-.14-1.182-2.2-1.6-2.365-.459-2.633,17.942,8.2,37.614,31.067,44.8A47.542,47.542,0,0,0,225.24,304.331Z" transform="translate(-173.804 -217.372)" fill="#8a8a8a"/>
        <text id="Quality_" data-name="Quality " transform="translate(53.378 38.51) rotate(3)" fill="#444" font-size="15" font-family="RobotoSlab-Regular, Roboto Slab"><tspan x="0" y="0">Quality </tspan></text>
        <text id="Assurance" transform="translate(42.392 57.96) rotate(3)" fill="#444" font-size="15" font-family="RobotoSlab-Regular, Roboto Slab"><tspan x="0" y="0">Assurance</tspan></text>
        <path id="Path_5007" data-name="Path 5007" d="M67.349,235.768c-4.525-7.608-14.154-18.435-33.186-21.536a1.007,1.007,0,0,1,.114-2c11.756-.424,30.49,2.257,35.446,22.548A1.3,1.3,0,0,1,67.349,235.768Z" transform="translate(88.423 -206.449)" fill="#8a8a8a"/>
      </g>
      <g id="Group_2283" data-name="Group 2283" transform="translate(770 1666.5)">
        <path id="Path_5008" data-name="Path 5008" d="M235.163,355c-2.732-2.912-77.355-1.472-77.644,2.042,0,0-4.371,49.759,0,53,1.316.978,6.6,1.74,13.4,2.217.158,7.658.708,16.044,2.386,15.053,1.847-1.091,5.793-8.76,8.585-14.563,14.078.318,51.918-.438,53.269-2.707C237.622,405.914,237.895,357.911,235.163,355Z" transform="translate(-150.272 -345.895)" fill="#cfcfcf"/>
        <text id="Project_" data-name="Project " transform="translate(20.554 32.427)" fill="#444" font-size="15" font-family="RobotoSlab-Regular, Roboto Slab"><tspan x="0" y="0">Project </tspan></text>
        <text id="Manager" transform="translate(16.554 52.427)" fill="#444" font-size="15" font-family="RobotoSlab-Regular, Roboto Slab"><tspan x="0" y="0">Manager</tspan></text>
        <path id="Path_5009" data-name="Path 5009" d="M221.723,346.74s31.989.355,33.624,4.422.614,35.2,2.8,35.2,5.086-35.046,1.332-40.363S215.936,345.019,221.723,346.74Z" transform="translate(-166.383 -343.438)" fill="#cfcfcf"/>
        <path id="Path_5010" data-name="Path 5010" d="M150.216,411.551s-.2,15.624,4.391,16.339,12.05-.613,12.254,0-9.7,5.82-15.113,3.37S149.194,406.242,150.216,411.551Z" transform="translate(-148.545 -359.975)" fill="#cfcfcf"/>
      </g>
      <g id="Group_2285" data-name="Group 2285" transform="translate(420 1646.81)">
        <path id="Path_5015" data-name="Path 5015" d="M422.484,371.206s20.111,30.921-20.785,45-99.053-11.9-79.82-38.525S403.112,344.646,422.484,371.206Z" transform="translate(-309.596 -351.394)" fill="#8a8a8a"/>
        <path id="Path_5016" data-name="Path 5016" d="M407.057,370.5c10.211,4.882,14.2,17.594,7.93,27.016-2.957,4.441-8.245,8.785-17.413,11.94-28.522,9.817-71.726-10.734-58.312-29.3C350.348,364.816,387.033,360.932,407.057,370.5Z" transform="translate(-314.226 -354.119)" fill="#cfcfcf"/>
        <path id="Path_5018" data-name="Path 5018" d="M341.566,374.964c-4.525-7.608-19.4-18.282-37.253-23.134a1.007,1.007,0,0,1,.114-2c9.639,1.539,37.91,11.145,39.513,24.146A1.3,1.3,0,0,1,341.566,374.964Z" transform="translate(-407.019 -118.821) rotate(-34)" fill="#8a8a8a"/>
        <path id="Path_5019" data-name="Path 5019" d="M309.266,402.462s23.162,20.58,20.156,20.935-25.11-6.815-25.11-6.815" transform="matrix(0.695, 0.719, -0.719, 0.695, 156.369, -441.194)" fill="#8a8a8a"/>
        <text id="Developer-2" data-name="Developer" transform="translate(28.096 39.367) rotate(-3)" fill="#444" font-size="15" font-family="RobotoSlab-Regular, Roboto Slab"><tspan x="0" y="0">Developer</tspan></text>
      </g>
      <g id="Group_2286" data-name="Group 2286" transform="translate(534 1626.418)">
        <path id="Path_5020" data-name="Path 5020" d="M391.182,214.237c26.484,24.809,11.713,69.278-24.2,74.5-15.969,2.321-34.577,2.638-52.675,2.638h-7.1l-9.682,18.314a1.608,1.608,0,0,1-2.929-.191l-6.737-18.115h0s-15.094,0-24.841-16.81c-14.354-24.754-.142-56.04,27.668-62.777a88.036,88.036,0,0,1,9.666-1.768l47.991-6.078C368.43,200.347,382.006,205.641,391.182,214.237Z" transform="translate(-256.309 -202.802)" fill="#cfcfcf"/>
        <text id="Front-end_" data-name="Front-end " transform="matrix(1, -0.017, 0.017, 1, 37.901, 41.741)" fill="#444" font-size="15" font-family="RobotoSlab-Regular, Roboto Slab"><tspan x="0" y="0">Front-end </tspan></text>
        <text id="Dev" transform="matrix(1, -0.017, 0.017, 1, 62.316, 63.318)" fill="#444" font-size="15" font-family="RobotoSlab-Regular, Roboto Slab"><tspan x="0" y="0">Dev</tspan></text>
        <path id="Path_5022" data-name="Path 5022" d="M258.386,228.155c4.525-7.608,14.153-18.435,33.186-21.536a1.007,1.007,0,0,0-.114-2c-11.756-.424-30.49,2.257-35.446,22.548A1.3,1.3,0,0,0,258.386,228.155Z" transform="translate(-255.97 -203.239)" fill="#cfcfcf"/>
      </g>
      <g id="Group_2279" data-name="Group 2279" transform="translate(276.47 1570.21)">
        <path id="Path_4994" data-name="Path 4994" d="M147.97,117.354c0,1.547-.043,3.086-.137,4.616v.017c-5.744,47.27-73.863,37.449-73.863,37.449L52.25,173.07s4.826-20.024,4.219-20.136C43.057,150.447,36.53,132.7,36.53,117.354a55.72,55.72,0,0,1,111.44,0Z" transform="translate(0 -0.88)" fill="#cfcfcf"/>
        <text id="Designer" transform="translate(59.817 113.906) rotate(7)" fill="#444" font-size="15" font-family="RobotoSlab-Regular, Roboto Slab"><tspan x="0" y="0">Designer</tspan></text>
        <path id="Path_4996" data-name="Path 4996" d="M40.788,82.288C45.916,73.667,56.827,61.4,78.4,57.883a1.141,1.141,0,0,0-.129-2.268c-13.322-.48-34.552,2.558-40.169,25.552A1.474,1.474,0,0,0,40.788,82.288Z" transform="translate(-0.221)" fill="#cfcfcf"/>
      </g>
    </g>
  </g>
</svg>
